<svg xmlns="http://www.w3.org/2000/svg" xmlns:xlink="http://www.w3.org/1999/xlink" width="500" zoomAndPan="magnify" viewBox="0 0 375 374.999991" height="500" preserveAspectRatio="xMidYMid meet" version="1.0"><defs><g/><radialGradient gradientTransform="matrix(1, 0, 0, 1, 0.0000045, 0)" gradientUnits="userSpaceOnUse" r="265.164751" cx="187.499996" id="a664a1991f" cy="187.499996" fx="187.499996" fy="187.499996"><stop stop-opacity="1" stop-color="rgb(100%, 100%, 100%)" offset="0"/><stop stop-opacity="1" stop-color="rgb(100%, 100%, 100%)" offset="1"/></radialGradient><clipPath id="02b184d161"><path d="M 41 86 L 334 86 L 334 282.101562 L 41 282.101562 Z M 41 86 " clip-rule="nonzero"/></clipPath><clipPath id="53248c06e8"><rect x="0" width="203" y="0" height="35"/></clipPath></defs><rect x="-37.5" width="450" fill="#ffffff" y="-37.499999" height="449.999989" fill-opacity="1"/><rect x="-37.5" fill="url(#a664a1991f)" width="450" y="-37.499999" height="449.999989"/><g clip-path="url(#02b184d161)"><path fill="#e58e26" d="M 80.332031 217.207031 L 46.933594 217.207031 C 46.453125 217.207031 46.078125 216.832031 46.078125 216.351562 C 46.078125 215.871094 46.453125 215.496094 46.933594 215.496094 L 332.929688 215.496094 C 333.410156 215.496094 333.785156 215.871094 333.785156 216.351562 C 333.785156 216.832031 333.410156 217.207031 332.929688 217.207031 L 294.125 217.207031 C 294.695312 219.984375 296.378906 223.289062 296.738281 225.132812 C 296.949219 226.230469 296.722656 227.746094 296.363281 228.480469 C 296.0625 229.097656 294.679688 228.84375 294.589844 229.519531 C 294.5 230.238281 295.972656 231.648438 295.820312 232.820312 C 295.65625 234.171875 293.824219 236.257812 293.601562 237.609375 C 293.40625 238.734375 294.246094 239.890625 294.425781 240.957031 C 294.589844 241.960938 294.847656 243.3125 294.679688 244.003906 C 294.53125 244.574219 293.464844 244.589844 293.359375 245.160156 C 293.238281 245.804688 294.097656 246.976562 293.976562 247.847656 C 293.855469 248.703125 293.238281 249.601562 292.65625 250.324219 C 292.039062 251.074219 290.945312 251.945312 290.296875 252.378906 C 289.847656 252.679688 288.992188 252.453125 288.765625 252.964844 C 288.40625 253.761719 288.421875 255.96875 288.152344 257.167969 C 287.910156 258.203125 287.566406 259.40625 287.117188 260.1875 C 286.738281 260.863281 285.945312 261.507812 285.507812 261.835938 C 285.238281 262.046875 284.742188 261.898438 284.519531 262.167969 C 284.054688 262.722656 283.421875 264.402344 282.703125 265.183594 C 282.027344 265.921875 280.914062 266.503906 280.179688 266.835938 C 279.59375 267.089844 278.800781 266.777344 278.273438 267.167969 C 277.554688 267.707031 276.742188 269.222656 275.886719 270.09375 C 275.03125 270.964844 273.964844 271.953125 273.078125 272.449219 C 272.34375 272.871094 271.261719 272.992188 270.601562 273.066406 C 270.109375 273.125 269.566406 272.734375 269.117188 272.945312 C 268.53125 273.214844 267.871094 274.222656 267.136719 274.71875 C 266.339844 275.257812 265.167969 275.796875 264.328125 276.15625 C 263.609375 276.457031 262.78125 276.742188 262.089844 276.863281 C 261.476562 276.96875 260.816406 276.652344 260.230469 276.863281 C 259.132812 277.253906 257.121094 278.46875 255.53125 279.175781 C 253.851562 279.910156 251.597656 280.871094 250.128906 281.277344 C 249 281.59375 247.652344 281.742188 246.660156 281.652344 C 245.773438 281.5625 245.039062 280.675781 244.136719 280.707031 C 242.875 280.738281 240.59375 281.621094 239.0625 281.863281 C 237.699219 282.074219 236.136719 282.164062 234.9375 282.148438 C 233.898438 282.148438 232.746094 282.042969 231.84375 281.816406 C 231.019531 281.605469 230.175781 281.203125 229.488281 280.78125 C 228.828125 280.390625 228.253906 279.65625 227.714844 279.339844 C 227.25 279.070312 226.710938 278.980469 226.183594 278.84375 C 225.433594 278.664062 224.144531 278.636719 223.210938 278.230469 C 222.132812 277.75 220.707031 276.96875 219.714844 276.007812 C 218.289062 274.625 216.082031 272.164062 214.6875 269.941406 C 212.089844 265.816406 207.253906 257.707031 204.164062 251.253906 C 200.90625 244.425781 197.183594 234.335938 195.082031 228.976562 C 194.148438 226.574219 192.980469 224.21875 192.230469 221.757812 C 192.257812 224.1875 192.289062 226.726562 192.230469 228.765625 C 192.136719 232.65625 191.734375 237.457031 191.476562 240.402344 C 191.3125 242.414062 191.296875 244.5 190.742188 246.421875 C 190.1875 248.34375 189.089844 252.019531 188.144531 251.945312 C 187.859375 251.914062 187.5 251.554688 187.140625 251 C 187.335938 251.058594 187.558594 251.105469 187.800781 251.105469 C 188.625 251.105469 189.300781 250.652344 189.300781 250.097656 C 188.957031 250.261719 188.402344 250.398438 187.800781 250.398438 C 187.394531 250.398438 187.003906 250.339844 186.6875 250.25 C 186 248.972656 185.351562 247.214844 185.054688 245.96875 C 184.332031 242.9375 183.941406 237.878906 183.820312 233.796875 C 183.6875 229.609375 184.09375 224.445312 184.226562 220.796875 C 184.273438 219.671875 184.332031 218.453125 184.40625 217.253906 L 183.238281 217.253906 C 183.222656 217.3125 183.222656 217.359375 183.207031 217.417969 C 182.710938 220.886719 181.015625 224.070312 179.738281 227.324219 C 177.652344 232.683594 173.929688 242.773438 170.65625 249.601562 C 167.566406 256.058594 162.730469 264.164062 160.132812 268.292969 C 158.738281 270.511719 156.53125 272.976562 155.105469 274.355469 C 154.113281 275.316406 152.671875 276.113281 151.59375 276.578125 C 150.660156 276.984375 149.371094 277.011719 148.621094 277.195312 C 148.09375 277.3125 147.554688 277.417969 147.089844 277.6875 C 146.535156 278.003906 145.964844 278.738281 145.316406 279.128906 C 144.628906 279.535156 143.800781 279.957031 142.960938 280.164062 C 142.0625 280.390625 140.90625 280.496094 139.867188 280.496094 C 138.667969 280.511719 137.105469 280.421875 135.742188 280.210938 C 134.210938 279.972656 131.929688 279.085938 130.667969 279.054688 C 129.765625 279.023438 129.046875 279.925781 128.144531 280 C 127.152344 280.089844 125.804688 279.941406 124.675781 279.625 C 123.207031 279.21875 120.953125 278.257812 119.273438 277.523438 C 117.667969 276.832031 115.671875 275.601562 114.574219 275.210938 C 113.988281 275.003906 113.328125 275.316406 112.714844 275.210938 C 112.039062 275.09375 111.195312 274.820312 110.476562 274.507812 C 109.636719 274.144531 108.464844 273.589844 107.667969 273.066406 C 106.933594 272.570312 106.273438 271.566406 105.6875 271.292969 C 105.238281 271.085938 104.695312 271.472656 104.203125 271.414062 C 103.542969 271.339844 102.460938 271.203125 101.726562 270.800781 C 100.839844 270.304688 99.773438 269.3125 98.917969 268.441406 C 98.046875 267.554688 97.238281 266.054688 96.53125 265.515625 C 96.019531 265.125 95.210938 265.453125 94.625 265.183594 C 93.890625 264.855469 92.792969 264.269531 92.101562 263.535156 C 91.382812 262.753906 90.75 261.085938 90.285156 260.515625 C 90.0625 260.246094 89.582031 260.394531 89.296875 260.1875 C 88.859375 259.855469 88.066406 259.210938 87.6875 258.535156 C 87.253906 257.753906 86.894531 256.554688 86.652344 255.515625 C 86.382812 254.316406 86.398438 252.109375 86.039062 251.3125 C 85.8125 250.820312 84.957031 251.042969 84.507812 250.742188 C 83.863281 250.308594 82.765625 249.4375 82.148438 248.6875 C 81.566406 247.953125 80.949219 247.066406 80.828125 246.210938 C 80.710938 245.355469 81.566406 244.167969 81.445312 243.523438 C 81.339844 242.953125 80.273438 242.9375 80.125 242.367188 C 79.945312 241.660156 80.199219 240.324219 80.378906 239.304688 C 80.558594 238.238281 81.398438 237.097656 81.203125 235.957031 C 80.964844 234.605469 79.148438 232.519531 78.96875 231.167969 C 78.832031 229.996094 80.304688 228.585938 80.214844 227.867188 C 80.125 227.191406 78.742188 227.445312 78.441406 226.832031 C 78.082031 226.09375 77.855469 224.59375 78.066406 223.484375 C 78.441406 221.980469 79.597656 219.550781 80.332031 217.207031 Z M 246.570312 273.1875 C 246.914062 273.367188 246.929688 274.523438 246.644531 275.09375 C 246.300781 275.8125 244.949219 277.359375 244.453125 277.480469 C 243.972656 277.597656 243.734375 276.414062 243.746094 275.84375 C 243.777344 275.257812 244.136719 274.460938 244.601562 274.027344 C 245.097656 273.574219 246.238281 273.003906 246.570312 273.1875 Z M 231.5 271.339844 C 231.664062 270.679688 233.015625 270.453125 233.765625 269.972656 C 234.546875 269.476562 235.535156 268.410156 236.195312 268.367188 C 236.855469 268.320312 237.429688 269.296875 237.757812 269.734375 C 238.027344 270.078125 238.195312 270.527344 238.253906 270.964844 C 238.328125 271.488281 238.492188 272.300781 238.207031 272.871094 C 237.921875 273.457031 237.1875 274.160156 236.511719 274.523438 C 235.851562 274.882812 234.832031 275.105469 234.199219 275.015625 C 233.601562 274.925781 233.074219 274.429688 232.714844 273.9375 C 232.277344 273.320312 231.316406 272 231.5 271.339844 Z M 258.519531 271.371094 C 258.925781 271.265625 259.808594 271.519531 260.183594 271.789062 C 260.558594 272.058594 260.890625 272.585938 260.800781 273.003906 C 260.710938 273.425781 260.019531 274.238281 259.644531 274.328125 C 259.269531 274.417969 258.894531 273.832031 258.5625 273.515625 C 258.25 273.199219 257.707031 272.808594 257.707031 272.464844 C 257.707031 272.089844 258.113281 271.472656 258.519531 271.371094 Z M 128.503906 269.898438 C 128.160156 270.078125 128.144531 271.234375 128.429688 271.804688 C 128.777344 272.523438 130.125 274.070312 130.621094 274.191406 C 131.101562 274.3125 131.359375 273.125 131.328125 272.554688 C 131.296875 271.984375 130.9375 271.175781 130.472656 270.738281 C 129.992188 270.289062 128.835938 269.71875 128.503906 269.898438 Z M 206.265625 230.492188 C 205.632812 230.402344 206.144531 234.578125 206.382812 236.601562 C 206.699219 239.230469 207.34375 243.074219 208.199219 246.226562 C 209.207031 249.976562 210.753906 255.308594 212.449219 259.179688 C 214.039062 262.796875 216.695312 267.226562 218.4375 269.417969 C 219.535156 270.800781 221.5625 272.015625 222.851562 272.300781 C 224.007812 272.554688 225.570312 272.136719 226.199219 271.144531 C 226.828125 270.152344 227.070312 267.902344 226.648438 266.355469 C 225.988281 263.863281 223.960938 259.464844 222.234375 256.207031 C 220.285156 252.515625 216.953125 247.382812 214.925781 244.199219 C 213.410156 241.796875 211.578125 239.425781 210.136719 237.144531 C 208.769531 234.964844 206.894531 230.582031 206.265625 230.492188 Z M 143.578125 268.050781 C 143.398438 267.390625 142.0625 267.167969 141.308594 266.6875 C 140.53125 266.191406 139.539062 265.125 138.878906 265.078125 C 138.21875 265.035156 137.648438 266.011719 137.316406 266.445312 C 137.03125 266.789062 136.882812 267.242188 136.820312 267.675781 C 136.746094 268.203125 136.582031 269.011719 136.867188 269.582031 C 137.152344 270.167969 137.886719 270.875 138.5625 271.234375 C 139.222656 271.59375 140.246094 271.820312 140.875 271.730469 C 141.476562 271.640625 142 271.144531 142.359375 270.648438 C 142.796875 270.046875 143.757812 268.710938 143.578125 268.050781 Z M 116.554688 268.082031 C 116.152344 267.976562 115.265625 268.230469 114.890625 268.503906 C 114.53125 268.773438 114.183594 269.296875 114.273438 269.71875 C 114.363281 270.136719 115.054688 270.949219 115.429688 271.039062 C 115.804688 271.128906 116.179688 270.542969 116.511719 270.226562 C 116.828125 269.914062 117.351562 269.523438 117.367188 269.164062 C 117.367188 268.800781 116.960938 268.1875 116.554688 268.082031 Z M 168.644531 228.828125 C 169.277344 228.738281 168.765625 232.910156 168.527344 234.9375 C 168.210938 237.5625 167.566406 241.40625 166.710938 244.558594 C 165.703125 248.3125 164.15625 253.65625 162.460938 257.515625 C 160.871094 261.132812 158.210938 265.558594 156.472656 267.75 C 155.375 269.132812 153.347656 270.347656 152.058594 270.632812 C 150.902344 270.890625 149.355469 270.46875 148.710938 269.476562 C 148.082031 268.488281 147.839844 266.234375 148.261719 264.6875 C 148.921875 262.199219 150.949219 257.800781 152.671875 254.542969 C 154.625 250.847656 157.957031 245.714844 159.984375 242.53125 C 161.5 240.128906 163.332031 237.757812 164.773438 235.476562 C 166.140625 233.316406 168.015625 228.917969 168.644531 228.828125 Z M 243.867188 266.191406 C 244.046875 265.53125 245.382812 265.304688 246.132812 264.824219 C 246.914062 264.328125 247.90625 263.261719 248.566406 263.21875 C 249.226562 263.171875 249.78125 264.148438 250.128906 264.585938 C 250.398438 264.929688 250.5625 265.378906 250.621094 265.816406 C 250.699219 266.339844 250.863281 267.152344 250.578125 267.722656 C 250.292969 268.308594 249.558594 269.011719 248.882812 269.371094 C 248.222656 269.734375 247.199219 269.957031 246.570312 269.867188 C 245.96875 269.777344 245.445312 269.28125 245.082031 268.800781 C 244.664062 268.171875 243.703125 266.835938 243.867188 266.191406 Z M 270.679688 262.964844 C 271.054688 262.949219 271.667969 263.921875 271.730469 264.570312 C 271.804688 265.363281 271.429688 267.390625 271.082031 267.738281 C 270.738281 268.097656 269.914062 267.195312 269.640625 266.6875 C 269.371094 266.175781 269.265625 265.304688 269.433594 264.675781 C 269.613281 264.074219 270.289062 262.976562 270.679688 262.964844 Z M 213.378906 217.207031 C 218.078125 220.253906 223.511719 223.332031 225.972656 225.792969 C 228.074219 227.894531 227.761719 231.484375 228.945312 234.214844 C 230.761719 238.390625 234.996094 246.75 236.871094 250.878906 C 238.089844 253.550781 239.679688 256.75 240.175781 259.046875 C 240.566406 260.875 240.339844 263.441406 239.84375 264.660156 C 239.453125 265.621094 238.207031 266.023438 237.203125 266.308594 C 236.183594 266.59375 234.695312 267.03125 233.734375 266.386719 C 231.933594 265.199219 228.496094 261.898438 226.394531 259.210938 C 223.542969 255.5625 219.757812 249.332031 216.652344 244.515625 C 213.636719 239.832031 210.390625 234.5 207.824219 230.328125 C 205.605469 226.710938 203.082031 223.046875 201.21875 219.429688 C 200.859375 218.738281 200.5 217.972656 200.140625 217.191406 Z M 131.207031 262.902344 C 131.027344 262.242188 129.691406 262.015625 128.941406 261.535156 C 128.160156 261.042969 127.167969 259.976562 126.507812 259.929688 C 125.847656 259.886719 125.277344 260.863281 124.949219 261.296875 C 124.675781 261.640625 124.511719 262.09375 124.453125 262.527344 C 124.378906 263.054688 124.210938 263.863281 124.496094 264.417969 C 124.78125 265.003906 125.519531 265.710938 126.195312 266.070312 C 126.855469 266.429688 127.875 266.65625 128.503906 266.566406 C 129.105469 266.476562 129.632812 265.980469 129.992188 265.484375 C 130.425781 264.882812 131.371094 263.5625 131.207031 262.902344 Z M 264.132812 264.507812 C 264.238281 265.257812 262.8125 265.679688 261.988281 265.90625 C 261.117188 266.160156 259.691406 266.21875 258.9375 265.980469 C 258.261719 265.769531 257.679688 265.15625 257.453125 264.492188 C 257.183594 263.652344 256.640625 261.460938 257.289062 260.953125 C 257.933594 260.441406 260.183594 260.863281 261.324219 261.445312 C 262.464844 262.046875 264.011719 263.773438 264.132812 264.507812 Z M 173.960938 217.207031 C 173.871094 217.402344 173.765625 217.597656 173.675781 217.777344 C 171.8125 221.394531 169.304688 225.058594 167.070312 228.675781 C 164.503906 232.863281 161.246094 238.179688 158.242188 242.878906 C 155.152344 247.695312 151.351562 253.925781 148.5 257.574219 C 146.398438 260.277344 142.960938 263.5625 141.160156 264.75 C 140.199219 265.378906 138.714844 264.960938 137.691406 264.675781 C 136.703125 264.390625 135.441406 263.984375 135.050781 263.023438 C 134.554688 261.808594 134.328125 259.238281 134.71875 257.410156 C 135.214844 255.113281 136.804688 251.914062 138.023438 249.242188 C 139.898438 245.097656 144.132812 236.753906 145.949219 232.578125 C 147.132812 229.847656 146.820312 226.261719 148.921875 224.160156 C 150.933594 222.148438 154.941406 219.714844 158.902344 217.238281 L 173.960938 217.238281 Z M 104.398438 259.675781 C 104.023438 259.660156 103.40625 260.636719 103.347656 261.28125 C 103.269531 262.078125 103.644531 264.105469 103.992188 264.449219 C 104.335938 264.808594 105.164062 263.910156 105.433594 263.414062 C 105.703125 262.902344 105.808594 262.03125 105.644531 261.402344 C 105.476562 260.769531 104.789062 259.691406 104.398438 259.675781 Z M 118.101562 258.519531 C 118.191406 258.550781 118.296875 258.59375 118.386719 258.625 C 120.082031 259.253906 122.351562 259.617188 124.332031 259.359375 C 126.449219 259.089844 129.300781 258.550781 131.101562 256.972656 C 133.175781 255.140625 135.003906 251.3125 136.792969 248.386719 C 138.609375 245.429688 140.5 242.230469 141.984375 239.230469 C 143.410156 236.363281 145.046875 232.761719 145.785156 230.402344 C 146.308594 228.707031 147.179688 225.554688 146.355469 225.121094 C 145.542969 224.683594 142.585938 227.101562 140.90625 227.761719 C 139.417969 228.347656 137.707031 228.332031 136.28125 229.082031 C 134.105469 230.222656 130.578125 232.640625 127.859375 234.605469 C 124.664062 236.933594 119.632812 240.492188 117.125 243.027344 C 115.25 244.917969 113.328125 247.695312 112.832031 249.796875 C 112.367188 251.71875 113.222656 254.105469 114.15625 255.578125 C 114.636719 256.34375 115.324219 256.988281 116.105469 257.5 C 115.28125 257.605469 114.347656 257.859375 113.734375 258.175781 C 112.59375 258.757812 111.046875 260.484375 110.925781 261.222656 C 110.820312 261.957031 112.246094 262.390625 113.074219 262.617188 C 113.945312 262.871094 115.371094 262.933594 116.121094 262.707031 C 116.78125 262.496094 117.382812 261.882812 117.605469 261.222656 C 117.832031 260.636719 118.148438 259.390625 118.101562 258.519531 Z M 228.542969 226.769531 C 227.730469 227.207031 228.585938 230.359375 229.113281 232.054688 C 229.847656 234.410156 231.46875 238.015625 232.910156 240.882812 C 234.410156 243.882812 236.285156 247.082031 238.101562 250.039062 C 239.90625 252.964844 241.722656 256.792969 243.792969 258.625 C 245.59375 260.199219 248.445312 260.742188 250.5625 261.011719 C 252.542969 261.265625 254.8125 260.90625 256.507812 260.277344 C 258.128906 259.675781 259.792969 258.699219 260.710938 257.230469 C 261.625 255.757812 262.480469 253.371094 262.03125 251.449219 C 261.535156 249.363281 259.613281 246.585938 257.738281 244.679688 C 255.230469 242.140625 250.203125 238.585938 247.003906 236.257812 C 244.289062 234.277344 240.761719 231.875 238.582031 230.734375 C 237.171875 229.984375 235.445312 229.996094 233.960938 229.414062 C 232.308594 228.753906 229.351562 226.335938 228.542969 226.769531 Z M 277.914062 257.949219 C 278.320312 257.84375 279.191406 258.085938 279.578125 258.371094 C 279.953125 258.640625 280.285156 259.164062 280.195312 259.585938 C 280.105469 260.003906 279.414062 260.816406 279.039062 260.90625 C 278.664062 260.980469 278.273438 260.410156 277.957031 260.097656 C 277.628906 259.78125 277.101562 259.390625 277.101562 259.046875 C 277.101562 258.683594 277.507812 258.070312 277.914062 257.949219 Z M 97.160156 254.675781 C 96.742188 254.570312 95.871094 254.828125 95.496094 255.097656 C 95.121094 255.367188 94.789062 255.894531 94.878906 256.3125 C 94.96875 256.734375 95.660156 257.542969 96.035156 257.632812 C 96.410156 257.722656 96.800781 257.136719 97.117188 256.824219 C 97.433594 256.507812 97.972656 256.117188 97.972656 255.757812 C 97.972656 255.398438 97.566406 254.78125 97.160156 254.675781 Z M 275.40625 254.496094 C 275.660156 255.203125 274.339844 255.90625 273.574219 256.296875 C 272.78125 256.71875 271.382812 257.0625 270.601562 256.988281 C 269.914062 256.914062 269.191406 256.433594 268.847656 255.832031 C 268.410156 255.066406 267.4375 253.011719 267.976562 252.394531 C 268.5 251.765625 270.796875 251.71875 272.042969 252.078125 C 273.289062 252.410156 275.152344 253.789062 275.40625 254.496094 Z M 99.667969 251.210938 C 99.414062 251.914062 100.734375 252.621094 101.484375 253.011719 C 102.28125 253.429688 103.675781 253.777344 104.457031 253.699219 C 105.164062 253.625 105.867188 253.144531 106.214844 252.546875 C 106.648438 251.78125 107.609375 249.722656 107.085938 249.109375 C 106.558594 248.476562 104.261719 248.433594 103.015625 248.792969 C 101.785156 249.121094 99.921875 250.503906 99.667969 251.210938 Z M 285.6875 249.015625 C 286.066406 249.078125 286.933594 249.738281 286.933594 250.339844 C 286.933594 250.984375 286.09375 252.605469 285.734375 252.84375 C 285.375 253.085938 284.953125 252.246094 284.789062 251.808594 C 284.609375 251.328125 284.503906 250.429688 284.652344 249.964844 C 284.789062 249.527344 285.300781 248.957031 285.6875 249.015625 Z M 197.886719 217.207031 C 198.578125 218.515625 199.78125 219.488281 200.53125 220.75 C 201.445312 222.296875 202.660156 224.714844 203.410156 226.53125 C 204.101562 228.179688 204.75 229.878906 205.0625 231.648438 C 205.394531 233.527344 205.289062 235.777344 205.394531 237.832031 C 205.5 239.964844 205.484375 242.351562 205.722656 244.4375 C 205.964844 246.449219 207.40625 251.074219 206.878906 250.382812 C 206.355469 249.691406 203.996094 243.207031 202.585938 240.3125 C 201.371094 237.804688 199.644531 235.566406 198.457031 233.046875 C 197.136719 230.222656 195.742188 226.679688 194.660156 223.394531 C 194.046875 221.488281 193.308594 219.292969 192.722656 217.207031 Z M 241.253906 231.394531 C 241.375 230.71875 247.050781 230.867188 249.917969 231.140625 C 253.113281 231.453125 257.167969 232.398438 260.484375 233.285156 C 263.652344 234.125 267.40625 234.921875 269.808594 236.421875 C 272.015625 237.789062 274.355469 240.507812 274.925781 242.277344 C 275.4375 243.898438 273.949219 245.804688 273.199219 247.066406 C 272.523438 248.175781 271.667969 249.542969 270.394531 249.78125 C 269.085938 250.039062 266.863281 249.394531 265.363281 248.550781 C 263.773438 247.652344 262.390625 245.714844 260.832031 244.425781 C 259.269531 243.132812 257.542969 242.050781 255.96875 240.792969 C 254.03125 239.246094 251.644531 236.753906 249.195312 235.175781 C 246.71875 233.628906 241.121094 232.070312 241.253906 231.394531 Z M 89.402344 245.730469 C 89.027344 245.789062 88.15625 246.449219 88.15625 247.050781 C 88.15625 247.679688 89.011719 249.316406 89.371094 249.574219 C 89.730469 249.8125 90.152344 248.972656 90.316406 248.535156 C 90.496094 248.054688 90.585938 247.15625 90.4375 246.691406 C 90.285156 246.242188 89.777344 245.667969 89.402344 245.730469 Z M 188.65625 249.015625 C 189.496094 248.835938 190.140625 248.148438 190.140625 247.320312 C 190.097656 247.351562 190.035156 247.382812 189.976562 247.425781 L 189.976562 247.367188 C 189.738281 247.515625 189.4375 247.652344 189.089844 247.757812 C 188.820312 247.816406 188.535156 247.847656 188.25 247.847656 C 187.5 247.847656 186.792969 247.605469 186.359375 247.320312 C 186.359375 247.367188 186.359375 247.410156 186.359375 247.457031 C 186.300781 247.425781 186.238281 247.394531 186.179688 247.351562 C 186.179688 248.3125 187.035156 249.09375 188.085938 249.09375 C 188.265625 249.109375 188.460938 249.0625 188.65625 249.015625 Z M 181.691406 217.207031 C 181.226562 218.769531 180.699219 220.332031 180.234375 221.742188 C 179.152344 225.027344 177.757812 228.570312 176.4375 231.394531 C 175.25 233.914062 173.523438 236.152344 172.308594 238.660156 C 170.914062 241.542969 168.539062 248.042969 168.015625 248.730469 C 167.488281 249.421875 168.929688 244.800781 169.171875 242.789062 C 169.410156 240.699219 169.394531 238.3125 169.5 236.183594 C 169.605469 234.109375 169.5 231.875 169.832031 229.996094 C 170.148438 228.226562 170.792969 226.53125 171.484375 224.878906 C 172.25 223.0625 173.449219 220.660156 174.363281 219.101562 C 174.769531 218.425781 175.3125 217.824219 175.820312 217.207031 Z M 279.820312 244.0625 C 280.285156 244.0625 280.765625 244.09375 281.050781 244.242188 C 281.441406 244.4375 281.785156 244.890625 281.800781 245.324219 C 281.816406 245.835938 281.621094 246.796875 281.140625 247.304688 C 280.644531 247.816406 279.683594 248.355469 278.875 248.371094 L 278.84375 248.371094 C 278.019531 248.371094 276.832031 247.9375 276.246094 247.382812 C 275.648438 246.8125 275.121094 245.503906 275.300781 244.996094 C 275.464844 244.484375 276.621094 244.484375 277.28125 244.332031 C 277.914062 244.183594 278.589844 244.09375 279.21875 244.078125 C 279.398438 244.078125 279.609375 244.0625 279.804688 244.0625 Z M 133.652344 229.742188 C 133.535156 229.066406 127.859375 229.21875 124.992188 229.488281 C 121.796875 229.804688 117.742188 230.75 114.425781 231.632812 C 111.257812 232.476562 107.503906 233.269531 105.101562 234.773438 C 102.894531 236.136719 100.554688 238.855469 99.984375 240.625 C 99.472656 242.246094 100.960938 244.152344 101.710938 245.414062 C 102.386719 246.527344 103.242188 247.890625 104.515625 248.132812 C 105.824219 248.386719 108.042969 247.742188 109.546875 246.902344 C 111.136719 246 112.519531 244.0625 114.078125 242.773438 C 115.640625 241.480469 117.367188 240.402344 118.941406 239.140625 C 120.878906 237.59375 123.265625 235.101562 125.714844 233.527344 C 128.175781 231.964844 133.773438 230.417969 133.652344 229.742188 Z M 188.085938 245.265625 C 189.390625 245.265625 190.457031 245.476562 190.457031 245.746094 C 190.457031 246.015625 189.390625 246.226562 188.085938 246.226562 C 186.78125 246.226562 185.714844 246.015625 185.714844 245.746094 C 185.714844 245.476562 186.78125 245.265625 188.085938 245.265625 Z M 95.316406 240.777344 C 95.511719 240.777344 95.691406 240.777344 95.871094 240.792969 C 96.5 240.804688 97.175781 240.894531 97.808594 241.046875 C 98.453125 241.195312 99.609375 241.195312 99.789062 241.707031 C 99.953125 242.21875 99.441406 243.539062 98.84375 244.09375 C 98.257812 244.648438 97.070312 245.085938 96.246094 245.085938 L 96.199219 245.085938 C 95.375 245.070312 94.414062 244.515625 93.933594 244.019531 C 93.453125 243.507812 93.257812 242.546875 93.273438 242.035156 C 93.289062 241.601562 93.617188 241.152344 94.007812 240.972656 C 94.308594 240.820312 94.804688 240.792969 95.285156 240.792969 Z M 185.667969 242.742188 C 185.667969 241.78125 186.675781 241 187.921875 241 C 189.167969 241 190.171875 241.78125 190.171875 242.742188 C 189.648438 242.457031 188.820312 242.21875 187.921875 242.21875 C 187.019531 242.21875 186.195312 242.457031 185.667969 242.742188 Z M 185.636719 240.535156 C 185.636719 239.726562 186.824219 239.066406 188.28125 239.066406 C 189.738281 239.066406 190.921875 239.726562 190.921875 240.535156 C 190.308594 240.296875 189.332031 240.101562 188.28125 240.101562 C 187.214844 240.101562 186.253906 240.296875 185.636719 240.535156 Z M 279.566406 236.273438 C 279.746094 235.613281 281.097656 235.386719 281.832031 234.90625 C 282.613281 234.410156 283.601562 233.34375 284.261719 233.300781 C 284.921875 233.253906 285.496094 234.230469 285.824219 234.667969 C 286.09375 235.011719 286.261719 235.460938 286.320312 235.898438 C 286.394531 236.421875 286.558594 237.234375 286.273438 237.804688 C 285.988281 238.390625 285.253906 239.09375 284.578125 239.457031 C 283.917969 239.816406 282.898438 240.039062 282.265625 239.949219 C 281.667969 239.859375 281.140625 239.363281 280.78125 238.871094 C 280.34375 238.253906 279.382812 236.933594 279.566406 236.273438 Z M 290.132812 235.402344 C 290.3125 235.402344 290.464844 235.433594 290.554688 235.476562 C 290.882812 235.65625 290.808594 236.347656 290.839844 236.796875 C 290.882812 237.25 291.019531 237.894531 290.792969 238.164062 C 290.628906 238.359375 290.207031 238.523438 289.847656 238.523438 C 289.710938 238.523438 289.578125 238.507812 289.488281 238.449219 C 289.097656 238.269531 288.601562 237.503906 288.496094 237.039062 C 288.390625 236.601562 288.480469 235.972656 288.828125 235.71875 C 289.066406 235.539062 289.667969 235.402344 290.117188 235.402344 Z M 95.511719 232.984375 C 95.332031 232.324219 93.996094 232.097656 93.242188 231.621094 C 92.464844 231.125 91.472656 230.058594 90.8125 230.011719 C 90.152344 229.96875 89.597656 230.945312 89.25 231.378906 C 88.980469 231.722656 88.816406 232.175781 88.753906 232.609375 C 88.679688 233.136719 88.515625 233.945312 88.800781 234.5 C 89.085938 235.085938 89.820312 235.792969 90.496094 236.152344 C 91.15625 236.511719 92.179688 236.738281 92.808594 236.648438 C 93.410156 236.558594 93.933594 236.0625 94.292969 235.566406 C 94.730469 234.964844 95.691406 233.644531 95.511719 232.984375 Z M 84.972656 232.113281 C 85.421875 232.113281 86.007812 232.25 86.25 232.429688 C 86.59375 232.683594 86.683594 233.316406 86.578125 233.75 C 86.472656 234.199219 85.976562 234.964844 85.585938 235.148438 C 85.484375 235.191406 85.363281 235.222656 85.226562 235.222656 C 84.867188 235.222656 84.433594 235.058594 84.265625 234.863281 C 84.042969 234.589844 84.191406 233.945312 84.222656 233.496094 C 84.265625 233.046875 84.175781 232.355469 84.507812 232.175781 C 84.597656 232.128906 84.761719 232.097656 84.941406 232.097656 C 84.957031 232.113281 84.972656 232.113281 84.972656 232.113281 Z M 272.523438 217.207031 C 274.144531 218.0625 275.660156 219.144531 276.816406 220.179688 C 278.453125 221.636719 279.878906 223.917969 280.527344 225.628906 C 281.097656 227.117188 281.1875 228.992188 280.691406 230.417969 C 280.195312 231.84375 279.085938 233.628906 277.554688 234.214844 C 275.765625 234.90625 272.433594 235.058594 269.957031 234.546875 C 266.820312 233.902344 261.703125 231.875 258.730469 230.34375 C 256.296875 229.082031 253.851562 226.980469 252.214844 225.3125 C 250.816406 223.875 249.917969 221.890625 248.910156 220.285156 C 248.3125 219.308594 247.515625 218.230469 246.929688 217.222656 Z M 126.898438 217.207031 C 126.582031 217.6875 126.269531 218.152344 125.984375 218.605469 C 124.976562 220.210938 124.078125 222.207031 122.679688 223.632812 C 121.042969 225.3125 118.597656 227.402344 116.164062 228.660156 C 113.207031 230.207031 108.074219 232.21875 104.9375 232.863281 C 102.460938 233.375 99.128906 233.226562 97.339844 232.535156 C 95.808594 231.949219 94.699219 230.164062 94.203125 228.738281 C 93.707031 227.3125 93.800781 225.449219 94.371094 223.949219 C 95.015625 222.238281 96.441406 219.96875 98.078125 218.5 C 98.574219 218.0625 99.113281 217.613281 99.714844 217.179688 Z M 245.472656 217.207031 C 246.238281 218.996094 247.035156 220.8125 247.9375 222.492188 C 249.210938 224.863281 252.304688 228.121094 252.230469 229.335938 C 252.152344 230.570312 249.03125 230.011719 247.441406 229.832031 C 245.171875 229.5625 241.464844 228.753906 238.613281 227.761719 C 235.429688 226.679688 231.695312 224.984375 228.375 223.304688 C 225.132812 221.652344 220.839844 219.414062 217.207031 217.191406 L 245.472656 217.191406 Z M 154.878906 217.207031 C 151.984375 218.859375 148.964844 220.421875 146.519531 221.652344 C 143.203125 223.332031 139.464844 225.027344 136.28125 226.109375 C 133.414062 227.085938 129.722656 227.910156 127.453125 228.167969 C 125.863281 228.347656 122.757812 228.902344 122.664062 227.671875 C 122.589844 226.457031 125.683594 223.199219 126.960938 220.824219 C 127.574219 219.671875 128.144531 218.4375 128.699219 217.207031 Z M 292.667969 224.339844 C 292.683594 224.339844 292.699219 224.339844 292.714844 224.339844 C 293.148438 224.382812 292.925781 225.300781 292.757812 225.75 C 292.578125 226.230469 292.070312 226.980469 291.648438 227.234375 C 291.421875 227.371094 291.09375 227.460938 290.808594 227.460938 L 290.792969 227.460938 C 290.566406 227.460938 290.359375 227.402344 290.253906 227.28125 C 290.011719 226.980469 289.773438 225.929688 290.179688 225.464844 C 290.554688 224.984375 292.160156 224.339844 292.667969 224.339844 Z M 283.601562 226.726562 C 283.09375 226.679688 282.445312 226.351562 282.3125 225.824219 C 282.175781 225.285156 282.371094 224.1875 282.761719 223.542969 C 283.183594 222.851562 284.082031 221.996094 284.820312 221.667969 C 285.554688 221.351562 286.546875 221.351562 287.207031 221.605469 C 287.867188 221.863281 288.585938 222.582031 288.8125 223.199219 C 289.050781 223.8125 288.933594 224.757812 288.617188 225.269531 C 288.285156 225.792969 287.519531 226.125 286.875 226.304688 C 286.050781 226.546875 284.367188 226.800781 283.601562 226.726562 Z M 82.421875 221.050781 C 82.929688 221.050781 84.523438 221.695312 84.925781 222.160156 C 85.316406 222.628906 85.09375 223.679688 84.851562 223.976562 C 84.746094 224.097656 84.535156 224.160156 84.3125 224.160156 L 84.296875 224.160156 C 83.996094 224.160156 83.667969 224.070312 83.441406 223.933594 C 83.019531 223.679688 82.511719 222.925781 82.332031 222.445312 C 82.164062 222.011719 81.941406 221.097656 82.375 221.050781 Z M 91.472656 223.4375 C 91.984375 223.378906 92.628906 223.0625 92.761719 222.539062 C 92.898438 222.011719 92.703125 220.902344 92.3125 220.253906 C 91.890625 219.566406 90.992188 218.710938 90.257812 218.394531 C 89.519531 218.078125 88.53125 218.078125 87.871094 218.320312 C 87.210938 218.574219 86.488281 219.292969 86.261719 219.910156 C 86.023438 220.527344 86.128906 221.472656 86.457031 221.980469 C 86.773438 222.507812 87.554688 222.835938 88.199219 223.019531 C 89.027344 223.257812 90.722656 223.511719 91.472656 223.4375 Z M 289.308594 217.207031 C 289.097656 217.507812 288.839844 217.777344 288.570312 217.957031 C 288.152344 218.230469 287.324219 218.527344 286.832031 218.527344 L 286.816406 218.527344 C 286.679688 218.527344 286.574219 218.5 286.5 218.453125 C 286.289062 218.289062 286.304688 217.71875 286.453125 217.207031 Z M 281.679688 217.207031 C 280.855469 217.34375 279.941406 217.449219 279.265625 217.449219 L 279.25 217.449219 C 279.085938 217.449219 278.949219 217.449219 278.8125 217.433594 C 278.558594 217.402344 278.273438 217.328125 278.019531 217.207031 Z M 65.96875 154.3125 C 65.621094 153.558594 65.335938 152.78125 65.203125 151.96875 C 64.707031 149.085938 66.464844 144.644531 64.945312 141.492188 C 61.976562 135.261719 50.460938 123.65625 47.324219 114.546875 C 44.320312 105.792969 37.550781 89.523438 46.167969 86.820312 C 54.785156 84.132812 82.644531 90.765625 98.976562 98.378906 C 115.972656 106.273438 133.925781 120.925781 148.09375 134.269531 C 153.363281 139.222656 159.820312 146.820312 165.808594 154.3125 L 178.085938 154.3125 C 168.886719 138.21875 158.421875 124.09375 145.152344 112.667969 C 144.28125 113.601562 141.925781 113.210938 139.71875 111.722656 C 137.40625 110.175781 136.132812 108 136.882812 106.890625 C 137.632812 105.777344 140.109375 106.140625 142.421875 107.683594 C 144.417969 109.019531 145.632812 110.824219 145.453125 111.992188 C 158.785156 123.925781 169.652344 138.25 179.09375 154.296875 L 196.402344 154.296875 L 195.921875 155.152344 C 205.902344 137.453125 217.449219 121.734375 231.902344 108.796875 C 231.722656 107.609375 232.9375 105.824219 234.9375 104.488281 C 237.246094 102.941406 239.738281 102.582031 240.476562 103.691406 C 241.226562 104.804688 239.949219 106.964844 237.636719 108.527344 C 235.429688 109.996094 233.074219 110.402344 232.203125 109.472656 C 217.839844 121.839844 206.757812 137.378906 197.015625 155.152344 L 197.484375 154.296875 L 210.40625 154.296875 C 216.007812 147.34375 221.921875 140.5 226.785156 135.90625 C 240.957031 122.5625 258.894531 107.910156 275.886719 100.015625 C 292.21875 92.402344 320.09375 85.769531 328.695312 88.457031 C 337.3125 91.15625 330.542969 107.429688 327.542969 116.183594 C 324.402344 125.292969 312.90625 136.882812 309.917969 143.128906 C 308.417969 146.28125 310.171875 150.722656 309.664062 153.605469 C 309.617188 153.832031 309.574219 154.070312 309.511719 154.296875 L 332.898438 154.296875 C 333.378906 154.296875 333.753906 154.671875 333.753906 155.152344 C 333.753906 155.632812 333.378906 156.007812 332.898438 156.007812 L 46.933594 156.007812 C 46.453125 156.007812 46.078125 155.632812 46.078125 155.152344 C 46.078125 154.671875 46.46875 154.3125 46.933594 154.3125 Z M 128.789062 154.3125 L 92.179688 154.3125 C 92.65625 153.320312 93.320312 152.402344 94.160156 151.757812 C 95.300781 150.871094 97.085938 150.496094 98.617188 150.109375 C 100.253906 149.703125 102.160156 149.535156 103.933594 149.28125 C 106.109375 148.964844 109.230469 148.515625 111.648438 148.246094 C 113.898438 147.992188 116.464844 147.375 118.417969 147.628906 C 120.203125 147.855469 121.839844 148.816406 123.371094 149.730469 C 124.917969 150.664062 126.390625 152 127.664062 153.199219 C 128.039062 153.546875 128.414062 153.921875 128.789062 154.3125 Z M 159.339844 154.3125 L 130.847656 154.3125 C 130.140625 153.363281 129.40625 152.433594 128.699219 151.714844 C 127.09375 150.09375 125.066406 148.953125 123.175781 147.675781 C 121.238281 146.371094 118.3125 145.304688 117.066406 143.878906 C 116 142.648438 116.269531 140.710938 115.746094 139.179688 C 115.191406 137.558594 114.621094 135.667969 113.765625 134.148438 C 112.921875 132.632812 111.542969 131.238281 110.625 130.023438 C 109.832031 128.972656 106.933594 127.125 108.238281 126.886719 C 110.492188 126.464844 120.234375 126.914062 124.167969 127.457031 C 126.855469 127.832031 129.4375 128.925781 131.835938 130.171875 C 134.945312 131.792969 139.613281 134.601562 142.8125 137.183594 C 145.886719 139.660156 148.320312 142.84375 151.066406 145.679688 C 153.753906 148.484375 156.621094 151.382812 159.339844 154.3125 Z M 245.355469 154.3125 L 217.132812 154.3125 C 219.367188 151.953125 221.664062 149.613281 223.84375 147.34375 C 226.589844 144.507812 229.019531 141.324219 232.097656 138.847656 C 235.3125 136.265625 239.964844 133.460938 243.070312 131.839844 C 245.472656 130.578125 248.054688 129.496094 250.742188 129.121094 C 254.675781 128.566406 264.417969 128.117188 266.671875 128.535156 C 267.960938 128.777344 265.078125 130.621094 264.28125 131.671875 C 263.367188 132.890625 261.988281 134.285156 261.144531 135.800781 C 260.289062 137.332031 259.71875 139.210938 259.164062 140.832031 C 258.640625 142.375 258.910156 144.3125 257.84375 145.527344 C 256.597656 146.941406 253.671875 148.019531 251.734375 149.328125 C 249.84375 150.601562 247.800781 151.742188 246.210938 153.363281 C 245.925781 153.648438 245.640625 153.964844 245.355469 154.3125 Z M 281.667969 154.3125 L 247.832031 154.3125 C 248.957031 153.273438 250.21875 152.179688 251.523438 151.398438 C 253.054688 150.46875 254.691406 149.523438 256.476562 149.296875 C 258.429688 149.058594 260.996094 149.65625 263.246094 149.914062 C 265.664062 150.183594 268.785156 150.632812 270.964844 150.949219 C 272.734375 151.203125 274.65625 151.351562 276.277344 151.773438 C 277.808594 152.164062 279.578125 152.539062 280.734375 153.425781 C 281.082031 153.679688 281.382812 153.980469 281.667969 154.3125 Z M 291.800781 149.820312 C 291.980469 149.3125 293.121094 149.3125 293.78125 149.160156 C 294.410156 149.011719 295.085938 148.921875 295.71875 148.90625 C 296.332031 148.890625 297.144531 148.863281 297.578125 149.070312 C 297.96875 149.25 298.3125 149.703125 298.328125 150.152344 C 298.34375 150.664062 298.148438 151.625 297.667969 152.132812 C 297.171875 152.644531 296.210938 153.199219 295.402344 153.199219 C 294.574219 153.214844 293.359375 152.78125 292.757812 152.210938 C 292.144531 151.652344 291.617188 150.332031 291.800781 149.820312 Z M 304.09375 151.96875 C 303.703125 151.789062 303.207031 151.023438 303.101562 150.558594 C 302.996094 150.121094 303.085938 149.492188 303.433594 149.238281 C 303.777344 148.980469 304.828125 148.816406 305.160156 148.980469 C 305.488281 149.160156 305.414062 149.851562 305.445312 150.300781 C 305.488281 150.753906 305.625 151.382812 305.398438 151.667969 C 305.1875 151.953125 304.484375 152.164062 304.09375 151.96875 Z M 83.277344 146.550781 C 83.109375 146.039062 81.953125 146.039062 81.292969 145.890625 C 80.664062 145.738281 79.988281 145.648438 79.359375 145.648438 C 78.742188 145.632812 77.933594 145.605469 77.496094 145.8125 C 77.105469 145.996094 76.761719 146.445312 76.761719 146.878906 C 76.746094 147.390625 76.941406 148.367188 77.421875 148.863281 C 77.917969 149.371094 78.878906 149.925781 79.6875 149.941406 C 80.515625 149.957031 81.730469 149.523438 82.332031 148.953125 C 82.929688 148.367188 83.457031 147.046875 83.277344 146.550781 Z M 259.40625 145.453125 C 259.238281 144.671875 260.394531 143.113281 260.726562 142.078125 C 261.027344 141.144531 261.054688 140.140625 261.386719 139.222656 C 261.820312 138.007812 262.4375 136.101562 263.367188 134.765625 C 264.296875 133.429688 265.453125 132.003906 266.957031 131.253906 C 268.605469 130.425781 271.234375 130.097656 273.230469 129.855469 C 275.105469 129.632812 277.566406 129.78125 278.917969 129.8125 C 279.714844 129.828125 280.660156 129.558594 281.304688 130.023438 C 282.371094 130.757812 284.445312 132.527344 285.3125 134.226562 C 286.183594 135.9375 286.484375 138.488281 286.515625 140.246094 C 286.53125 141.792969 286.246094 143.457031 285.449219 144.777344 C 284.625 146.144531 283.199219 147.71875 281.578125 148.457031 C 279.714844 149.28125 276.324219 149.566406 274.3125 149.730469 C 272.71875 149.867188 271.054688 149.71875 269.523438 149.445312 C 268.019531 149.175781 266.460938 148.578125 265.152344 148.125 C 263.984375 147.71875 262.648438 147.210938 261.6875 146.761719 C 260.890625 146.398438 259.570312 146.234375 259.40625 145.453125 Z M 70.980469 148.679688 C 71.371094 148.5 71.867188 147.734375 71.972656 147.269531 C 72.078125 146.835938 71.988281 146.203125 71.640625 145.949219 C 71.296875 145.695312 70.246094 145.527344 69.914062 145.710938 C 69.570312 145.890625 69.660156 146.578125 69.628906 147.03125 C 69.585938 147.480469 69.449219 148.109375 69.675781 148.394531 C 69.902344 148.667969 70.605469 148.875 70.980469 148.679688 Z M 115.492188 143.789062 C 115.65625 143.007812 114.5 141.445312 114.167969 140.410156 C 113.871094 139.480469 113.839844 138.472656 113.507812 137.558594 C 113.074219 136.34375 112.457031 134.421875 111.527344 133.097656 C 110.597656 131.777344 109.441406 130.335938 107.941406 129.585938 C 106.289062 128.761719 103.660156 128.429688 101.664062 128.191406 C 99.789062 127.964844 97.328125 128.117188 95.976562 128.144531 C 95.179688 128.160156 94.234375 127.890625 93.589844 128.355469 C 92.523438 129.089844 90.453125 130.863281 89.582031 132.558594 C 88.710938 134.269531 88.410156 136.824219 88.378906 138.578125 C 88.363281 140.125 88.648438 141.792969 89.460938 143.113281 C 90.285156 144.476562 91.710938 146.070312 93.332031 146.789062 C 95.195312 147.617188 98.585938 147.902344 100.597656 148.066406 C 102.191406 148.199219 103.855469 148.050781 105.386719 147.78125 C 106.890625 147.511719 108.449219 146.910156 109.757812 146.460938 C 110.925781 146.054688 112.261719 145.542969 113.222656 145.09375 C 114.019531 144.75 115.339844 144.582031 115.492188 143.789062 Z M 296.289062 143.757812 C 295.566406 143.699219 294.441406 143.636719 293.808594 143.21875 C 293.179688 142.796875 292.699219 142.03125 292.535156 141.28125 C 292.339844 140.425781 292.371094 139.117188 292.65625 138.097656 C 292.953125 137.046875 293.734375 135.742188 294.351562 135.007812 C 294.847656 134.40625 295.507812 133.65625 296.289062 133.683594 C 297.171875 133.714844 298.824219 134.601562 299.636719 135.171875 C 300.28125 135.636719 300.820312 136.34375 301.074219 137.109375 C 301.375 138.039062 301.632812 139.824219 301.453125 140.742188 C 301.285156 141.519531 300.476562 142.136719 299.921875 142.601562 C 299.394531 143.035156 298.703125 143.367188 298.105469 143.546875 C 297.535156 143.742188 296.902344 143.800781 296.289062 143.757812 Z M 78.789062 140.46875 C 79.507812 140.410156 80.632812 140.351562 81.265625 139.929688 C 81.894531 139.523438 82.375 138.742188 82.539062 137.992188 C 82.734375 137.136719 82.707031 135.832031 82.421875 134.8125 C 82.121094 133.761719 81.339844 132.453125 80.722656 131.71875 C 80.230469 131.117188 79.566406 130.367188 78.789062 130.398438 C 77.902344 130.425781 76.234375 131.3125 75.441406 131.882812 C 74.78125 132.347656 74.253906 133.054688 74 133.820312 C 73.699219 134.75 73.429688 136.539062 73.625 137.453125 C 73.789062 138.234375 74.597656 138.832031 75.15625 139.3125 C 75.679688 139.75 76.371094 140.066406 76.972656 140.261719 C 77.558594 140.457031 78.171875 140.53125 78.789062 140.46875 Z M 305.65625 139.839844 C 304.964844 139.628906 303.851562 138.9375 303.71875 138.429688 C 303.582031 137.933594 304.363281 137.0625 304.875 136.824219 C 305.371094 136.566406 306.210938 136.746094 306.734375 136.941406 C 307.261719 137.136719 307.875 137.558594 308.054688 138.007812 C 308.238281 138.457031 308.25 139.359375 307.847656 139.660156 C 307.441406 139.976562 306.34375 140.050781 305.65625 139.839844 Z M 69.421875 136.550781 C 70.109375 136.34375 71.222656 135.652344 71.355469 135.140625 C 71.492188 134.644531 70.695312 133.773438 70.199219 133.535156 C 69.707031 133.28125 68.878906 133.460938 68.339844 133.65625 C 67.8125 133.851562 67.199219 134.269531 67.019531 134.722656 C 66.839844 135.171875 66.824219 136.070312 67.230469 136.371094 C 67.632812 136.6875 68.730469 136.761719 69.421875 136.550781 Z M 312.257812 135.679688 C 311.765625 135.5625 311.058594 134.902344 310.9375 134.359375 C 310.820312 133.820312 311.117188 132.917969 311.507812 132.425781 C 311.914062 131.929688 312.800781 131.507812 313.324219 131.386719 C 313.777344 131.28125 314.40625 131.386719 314.644531 131.71875 C 314.886719 132.046875 314.886719 132.828125 314.765625 133.371094 C 314.644531 133.925781 314.316406 134.675781 313.894531 135.066406 C 313.492188 135.441406 312.753906 135.785156 312.257812 135.679688 Z M 62.816406 132.394531 C 63.3125 132.273438 64.015625 131.613281 64.136719 131.074219 C 64.257812 130.53125 63.957031 129.632812 63.566406 129.136719 C 63.160156 128.640625 62.273438 128.222656 61.75 128.101562 C 61.300781 127.996094 60.667969 128.101562 60.429688 128.429688 C 60.1875 128.761719 60.1875 129.542969 60.308594 130.082031 C 60.429688 130.636719 60.757812 131.386719 61.179688 131.777344 C 61.585938 132.152344 62.320312 132.5 62.816406 132.394531 Z M 305.25 131.507812 C 304.828125 131.3125 304.109375 130.503906 304.019531 129.902344 C 303.929688 129.300781 304.378906 128.339844 304.722656 127.875 C 305.039062 127.457031 305.625 127.003906 306.089844 127.09375 C 306.554688 127.171875 307.351562 127.84375 307.53125 128.371094 C 307.710938 128.894531 307.320312 129.78125 307.15625 130.230469 C 307.035156 130.5625 306.824219 130.894531 306.539062 131.101562 C 306.210938 131.3125 305.65625 131.703125 305.25 131.507812 Z M 290.027344 125.277344 C 289.53125 124.210938 289.546875 122.605469 290.101562 121.734375 C 290.671875 120.851562 292.1875 120.265625 293.40625 119.996094 C 294.832031 119.695312 297.144531 119.753906 298.6875 119.917969 C 300.054688 120.070312 301.648438 120.578125 302.652344 121 C 303.417969 121.316406 304.378906 121.734375 304.707031 122.394531 C 305.039062 123.070312 305.023438 124.226562 304.664062 125.039062 C 304.226562 126.015625 303.164062 127.457031 302.066406 128.296875 C 300.957031 129.152344 299.378906 129.992188 297.984375 130.15625 C 296.585938 130.324219 294.90625 130.066406 293.644531 129.285156 C 292.324219 128.460938 290.613281 126.539062 290.027344 125.277344 Z M 69.824219 128.222656 C 70.246094 128.027344 70.980469 127.214844 71.058594 126.613281 C 71.148438 126.015625 70.695312 125.054688 70.351562 124.589844 C 70.035156 124.167969 69.449219 123.71875 68.984375 123.808594 C 68.519531 123.898438 67.722656 124.574219 67.542969 125.082031 C 67.363281 125.609375 67.753906 126.480469 67.917969 126.945312 C 68.039062 127.273438 68.25 127.605469 68.535156 127.816406 C 68.863281 128.027344 69.421875 128.414062 69.824219 128.222656 Z M 85.0625 121.992188 C 85.574219 120.925781 85.542969 119.320312 84.972656 118.449219 C 84.417969 117.578125 82.886719 116.976562 81.667969 116.722656 C 80.242188 116.421875 77.933594 116.46875 76.386719 116.632812 C 75.019531 116.78125 73.429688 117.292969 72.421875 117.714844 C 71.65625 118.027344 70.695312 118.449219 70.367188 119.109375 C 70.019531 119.785156 70.050781 120.941406 70.410156 121.75 C 70.847656 122.726562 71.914062 124.167969 73.007812 125.007812 C 74.117188 125.863281 75.695312 126.703125 77.089844 126.871094 C 78.488281 127.035156 80.167969 126.765625 81.429688 126 C 82.75 125.1875 84.460938 123.253906 85.0625 121.992188 Z M 246.359375 126.433594 L 246.691406 125.5625 C 246.691406 125.5625 248.085938 123.550781 249 122.757812 C 249.933594 121.929688 251.34375 121.226562 252.304688 120.609375 C 253.113281 120.085938 253.894531 119.5 254.734375 119.050781 C 255.816406 118.476562 257.421875 117.652344 258.742188 117.15625 C 260.003906 116.675781 261.609375 116.285156 262.617188 116.078125 C 263.351562 115.925781 264.523438 115.835938 264.855469 115.910156 C 265.0625 115.957031 264.671875 116.332031 264.523438 116.496094 C 264.058594 116.949219 262.945312 117.96875 262.089844 118.644531 C 261.054688 119.453125 259.644531 120.550781 258.339844 121.359375 C 256.851562 122.304688 254.601562 123.523438 253.144531 124.289062 C 251.988281 124.902344 250.519531 125.59375 249.601562 125.984375 C 248.957031 126.253906 248.085938 126.523438 247.621094 126.644531 C 247.367188 126.703125 247.035156 126.71875 246.839844 126.691406 C 246.660156 126.644531 246.359375 126.433594 246.359375 126.433594 Z M 310.441406 122.847656 C 310.488281 122.171875 311.117188 121.375 311.765625 120.957031 C 312.425781 120.503906 313.566406 120.160156 314.449219 120.175781 C 315.335938 120.191406 316.460938 120.535156 317.046875 121.046875 C 317.632812 121.539062 318.054688 122.425781 317.949219 123.191406 C 317.84375 123.957031 317.078125 125.234375 316.417969 125.667969 C 315.773438 126.105469 314.839844 125.9375 314.0625 125.835938 C 313.234375 125.730469 312.0625 125.503906 311.464844 125.007812 C 310.878906 124.496094 310.398438 123.523438 310.441406 122.847656 Z M 268.15625 124.40625 C 267.929688 123.824219 268.9375 122.773438 269.640625 122.261719 C 270.527344 121.632812 272.238281 120.925781 273.484375 120.609375 C 274.65625 120.308594 276.023438 120.265625 277.117188 120.355469 C 278.125 120.445312 279.324219 120.835938 280.046875 121.179688 C 280.601562 121.449219 281.636719 121.929688 281.441406 122.410156 C 281.261719 122.90625 279.851562 123.6875 278.917969 124.109375 C 277.71875 124.632812 275.585938 125.324219 274.25 125.59375 C 273.167969 125.820312 271.96875 125.925781 270.949219 125.714844 C 269.941406 125.535156 268.367188 124.992188 268.15625 124.40625 Z M 128.535156 124.769531 L 128.203125 123.898438 C 128.203125 123.898438 126.808594 121.886719 125.894531 121.089844 C 124.960938 120.265625 123.550781 119.574219 122.589844 118.945312 C 121.78125 118.417969 121 117.832031 120.160156 117.382812 C 119.078125 116.796875 117.472656 115.988281 116.152344 115.476562 C 114.890625 114.996094 113.285156 114.605469 112.277344 114.410156 C 111.542969 114.261719 110.371094 114.171875 110.042969 114.246094 C 109.832031 114.289062 110.222656 114.664062 110.371094 114.832031 C 110.835938 115.28125 111.949219 116.300781 112.804688 116.976562 C 113.839844 117.789062 115.25 118.867188 116.554688 119.695312 C 118.042969 120.640625 120.292969 121.855469 121.75 122.621094 C 122.90625 123.238281 124.378906 123.925781 125.292969 124.316406 C 125.9375 124.589844 126.808594 124.859375 127.273438 124.976562 C 127.53125 125.039062 127.859375 125.054688 128.054688 125.023438 C 128.25 124.992188 128.535156 124.769531 128.535156 124.769531 Z M 64.632812 119.558594 C 64.585938 118.882812 63.957031 118.089844 63.3125 117.667969 C 62.652344 117.21875 61.507812 116.871094 60.625 116.886719 C 59.738281 116.902344 58.613281 117.246094 58.027344 117.757812 C 57.441406 118.269531 57.019531 119.140625 57.125 119.90625 C 57.230469 120.671875 58.011719 121.945312 58.65625 122.382812 C 59.304688 122.816406 60.234375 122.652344 61.015625 122.546875 C 61.839844 122.441406 63.011719 122.214844 63.609375 121.722656 C 64.210938 121.210938 64.675781 120.234375 64.632812 119.558594 Z M 106.917969 121.121094 C 107.144531 120.550781 106.136719 119.484375 105.433594 118.972656 C 104.546875 118.34375 102.835938 117.636719 101.589844 117.324219 C 100.417969 117.023438 99.054688 116.976562 97.957031 117.066406 C 96.953125 117.15625 95.75 117.546875 95.03125 117.894531 C 94.460938 118.164062 93.4375 118.644531 93.632812 119.140625 C 93.8125 119.632812 95.226562 120.414062 96.15625 120.835938 C 97.355469 121.359375 99.488281 122.050781 100.824219 122.320312 C 101.90625 122.546875 103.105469 122.652344 104.125 122.441406 C 105.132812 122.246094 106.707031 121.707031 106.917969 121.121094 Z M 277.433594 117.351562 C 277.703125 116.753906 279.59375 115.355469 280.902344 114.785156 C 282.207031 114.214844 283.917969 114.019531 285.269531 113.960938 C 286.515625 113.914062 288.585938 114.035156 288.976562 114.457031 C 289.367188 114.875 288.195312 115.910156 287.65625 116.511719 C 287.085938 117.140625 286.425781 117.90625 285.597656 118.253906 C 284.652344 118.628906 283.03125 118.808594 281.964844 118.824219 C 281.050781 118.855469 280 118.660156 279.234375 118.417969 C 278.589844 118.207031 277.164062 117.953125 277.433594 117.351562 Z M 318.773438 118.132812 C 318.460938 117.5625 318.339844 116.015625 318.773438 115.371094 C 319.210938 114.710938 320.652344 114.335938 321.417969 114.214844 C 322.078125 114.109375 323.007812 114.273438 323.351562 114.664062 C 323.699219 115.054688 323.636719 115.988281 323.519531 116.558594 C 323.414062 117.140625 323.171875 117.804688 322.691406 118.164062 C 322.210938 118.539062 321.328125 118.792969 320.664062 118.777344 C 320.019531 118.792969 319.089844 118.71875 318.773438 118.132812 Z M 291.136719 112.652344 C 290.734375 112.25 290.75 111.394531 291.0625 110.957031 C 291.363281 110.539062 292.28125 110.222656 292.953125 110.085938 C 293.824219 109.90625 295.160156 109.921875 296.257812 109.921875 C 297.503906 109.90625 299.257812 109.996094 300.460938 110.042969 C 301.480469 110.070312 302.546875 110.070312 303.523438 110.164062 C 304.453125 110.265625 305.382812 110.417969 306.285156 110.65625 C 307.214844 110.898438 308.417969 111.199219 309.136719 111.601562 C 309.738281 111.949219 310.324219 112.5625 310.578125 113.089844 C 310.820312 113.601562 310.820312 114.304688 310.652344 114.785156 C 310.488281 115.265625 310.097656 115.746094 309.617188 115.941406 C 308.910156 116.226562 307.515625 116.4375 306.433594 116.480469 C 305.144531 116.542969 303.222656 116.421875 301.902344 116.316406 C 300.746094 116.226562 299.574219 116.121094 298.433594 115.898438 C 297.308594 115.671875 296.152344 115.460938 295.085938 114.996094 C 293.886719 114.457031 291.8125 113.328125 291.136719 112.652344 Z M 97.640625 114.066406 C 97.371094 113.464844 95.480469 112.070312 94.175781 111.511719 C 92.867188 110.941406 91.15625 110.746094 89.804688 110.6875 C 88.558594 110.640625 86.488281 110.761719 86.097656 111.183594 C 85.691406 111.601562 86.878906 112.640625 87.417969 113.253906 C 87.988281 113.886719 88.648438 114.652344 89.476562 114.980469 C 90.421875 115.371094 92.042969 115.535156 93.109375 115.566406 C 94.023438 115.597656 95.074219 115.402344 95.824219 115.160156 C 96.484375 114.921875 97.914062 114.679688 97.640625 114.066406 Z M 56.300781 114.859375 C 56.617188 114.289062 56.734375 112.742188 56.300781 112.097656 C 55.867188 111.453125 54.425781 111.0625 53.660156 110.941406 C 53 110.835938 52.066406 111.003906 51.722656 111.394531 C 51.375 111.785156 51.453125 112.714844 51.558594 113.300781 C 51.660156 113.886719 51.902344 114.53125 52.382812 114.90625 C 52.863281 115.28125 53.75 115.535156 54.410156 115.519531 C 55.054688 115.507812 55.984375 115.417969 56.300781 114.859375 Z M 276.324219 113.675781 C 275.84375 112.714844 277.222656 108.929688 278.589844 107.488281 C 279.96875 106.050781 283.496094 104.636719 284.5625 105.011719 C 285.628906 105.386719 285.496094 108.390625 284.984375 109.757812 C 284.472656 111.136719 282.925781 112.609375 281.472656 113.269531 C 280.03125 113.929688 276.800781 114.652344 276.324219 113.675781 Z M 83.9375 109.367188 C 84.34375 108.976562 84.328125 108.105469 84.011719 107.671875 C 83.710938 107.25 82.796875 106.933594 82.121094 106.800781 C 81.25 106.621094 79.914062 106.632812 78.816406 106.632812 C 77.570312 106.632812 75.816406 106.722656 74.613281 106.753906 C 73.59375 106.785156 72.527344 106.769531 71.550781 106.875 C 70.621094 106.980469 69.691406 107.144531 68.789062 107.371094 C 67.859375 107.609375 66.660156 107.910156 65.9375 108.316406 C 65.335938 108.660156 64.753906 109.277344 64.496094 109.800781 C 64.257812 110.3125 64.257812 111.019531 64.421875 111.5 C 64.570312 111.980469 64.976562 112.457031 65.457031 112.652344 C 66.164062 112.9375 67.558594 113.132812 68.640625 113.195312 C 69.929688 113.253906 71.835938 113.121094 73.171875 113.03125 C 74.328125 112.9375 75.5 112.835938 76.640625 112.625 C 77.78125 112.414062 78.921875 112.1875 79.988281 111.722656 C 81.203125 111.167969 83.277344 110.042969 83.9375 109.367188 Z M 264.898438 112.5625 C 265.152344 112.007812 266.191406 110.3125 267.164062 109.5 C 268.1875 108.675781 270.03125 107.925781 271.039062 107.566406 C 271.730469 107.324219 272.988281 107.085938 273.230469 107.355469 C 273.46875 107.625 272.855469 108.675781 272.449219 109.214844 C 272.015625 109.800781 271.277344 110.402344 270.589844 110.867188 C 269.777344 111.4375 268.367188 112.265625 267.539062 112.59375 C 266.941406 112.835938 266.039062 112.847656 265.605469 112.847656 C 265.347656 112.847656 264.792969 112.804688 264.898438 112.5625 Z M 312.800781 109.589844 C 313.207031 108.886719 315.15625 107.371094 316.554688 107.070312 C 317.949219 106.769531 320.335938 107.28125 321.175781 107.820312 C 321.867188 108.253906 321.867188 109.515625 321.550781 110.253906 C 321.234375 110.988281 320.09375 111.875 319.238281 112.234375 C 318.382812 112.59375 317.289062 112.578125 316.433594 112.445312 C 315.59375 112.292969 314.722656 111.84375 314.121094 111.363281 C 313.535156 110.914062 312.441406 110.238281 312.800781 109.589844 Z M 110.011719 110.914062 C 109.757812 110.355469 108.71875 108.660156 107.746094 107.867188 C 106.722656 107.039062 104.878906 106.289062 103.871094 105.929688 C 103.179688 105.6875 101.921875 105.449219 101.679688 105.71875 C 101.441406 105.988281 102.054688 107.039062 102.460938 107.582031 C 102.894531 108.164062 103.632812 108.765625 104.320312 109.230469 C 105.132812 109.785156 106.542969 110.628906 107.371094 110.957031 C 107.96875 111.199219 108.871094 111.214844 109.304688 111.214844 C 109.5625 111.199219 110.117188 111.136719 110.011719 110.914062 Z M 96.515625 104.234375 C 97.492188 104.636719 98.289062 104.714844 98.496094 104.367188 C 98.78125 103.902344 97.851562 102.835938 96.441406 101.996094 C 95.03125 101.15625 93.648438 100.839844 93.363281 101.304688 C 93.214844 101.5625 93.421875 102.011719 93.902344 102.507812 C 92.539062 101.875 91.113281 101.515625 90.511719 101.726562 C 89.445312 102.101562 89.582031 105.101562 90.105469 106.46875 C 90.617188 107.851562 92.164062 109.320312 93.605469 109.980469 C 95.046875 110.628906 98.289062 111.363281 98.769531 110.386719 C 99.234375 109.441406 97.882812 105.703125 96.515625 104.234375 Z M 62.273438 106.320312 C 61.871094 105.597656 59.917969 104.097656 58.523438 103.796875 C 57.125 103.496094 54.738281 104.007812 53.898438 104.546875 C 53.207031 104.984375 53.207031 106.246094 53.523438 106.980469 C 53.855469 107.714844 54.980469 108.601562 55.835938 108.960938 C 56.691406 109.320312 57.785156 109.304688 58.640625 109.171875 C 59.484375 109.035156 60.355469 108.570312 60.953125 108.105469 C 61.539062 107.640625 62.652344 106.949219 62.273438 106.320312 Z M 294.230469 104.234375 C 294.003906 103.78125 294.140625 103.152344 294.441406 102.746094 C 294.726562 102.339844 295.433594 102.027344 295.972656 101.800781 C 296.511719 101.5625 297.082031 101.425781 297.667969 101.351562 C 298.71875 101.199219 300.910156 101.003906 302.320312 100.945312 C 303.597656 100.886719 305.054688 100.855469 306.164062 100.945312 C 307.125 101.035156 308.160156 101.289062 308.972656 101.53125 C 309.664062 101.726562 310.503906 101.996094 311 102.3125 C 311.402344 102.566406 311.734375 102.988281 311.898438 103.421875 C 312.0625 103.855469 312.109375 104.457031 311.972656 104.953125 C 311.824219 105.554688 311.628906 106.621094 310.984375 107.011719 C 310.097656 107.550781 308.101562 108.015625 306.691406 108.210938 C 305.292969 108.40625 303.808594 108.332031 302.488281 108.164062 C 301.226562 108.015625 299.832031 107.582031 298.78125 107.265625 C 297.878906 106.996094 296.902344 106.738281 296.136719 106.230469 C 295.371094 105.71875 294.515625 104.816406 294.230469 104.234375 Z M 278.46875 103.648438 C 279.878906 102.804688 281.261719 102.492188 281.546875 102.957031 C 281.832031 103.421875 280.902344 104.488281 279.488281 105.34375 C 278.0625 106.183594 276.699219 106.5 276.414062 106.035156 C 276.128906 105.570312 277.058594 104.503906 278.46875 103.648438 Z M 287.175781 103.78125 C 287.117188 104.261719 288.078125 105.34375 288.660156 105.671875 C 289.246094 106.019531 290.117188 106.019531 290.71875 105.839844 C 291.332031 105.660156 292.128906 105.074219 292.324219 104.609375 C 292.519531 104.128906 292.175781 103.316406 291.875 102.957031 C 291.574219 102.613281 290.988281 102.519531 290.507812 102.507812 C 290.027344 102.492188 289.472656 102.65625 288.976562 102.835938 C 288.4375 103.046875 287.234375 103.300781 287.175781 103.78125 Z M 323.984375 104.683594 C 324 104.1875 324.914062 102.328125 325.46875 101.964844 C 325.996094 101.621094 326.820312 102.207031 327.285156 102.460938 C 327.691406 102.6875 328.246094 103.105469 328.277344 103.453125 C 328.308594 103.78125 327.839844 104.277344 327.449219 104.488281 C 326.96875 104.742188 325.964844 104.953125 325.394531 104.984375 C 324.898438 105.011719 323.96875 105.164062 323.984375 104.683594 Z M 80.84375 100.945312 C 81.070312 100.496094 80.917969 99.863281 80.632812 99.460938 C 80.347656 99.054688 79.644531 98.738281 79.101562 98.511719 C 78.5625 98.273438 77.992188 98.136719 77.40625 98.0625 C 76.339844 97.929688 74.164062 97.71875 72.738281 97.65625 C 71.460938 97.597656 70.007812 97.566406 68.894531 97.65625 C 67.949219 97.734375 66.898438 98.003906 66.089844 98.226562 C 65.398438 98.421875 64.558594 98.695312 64.0625 99.007812 C 63.65625 99.265625 63.3125 99.683594 63.144531 100.121094 C 62.980469 100.554688 62.9375 101.15625 63.070312 101.652344 C 63.222656 102.25 63.414062 103.316406 64.0625 103.707031 C 64.945312 104.246094 66.929688 104.714844 68.355469 104.90625 C 69.75 105.101562 71.238281 105.027344 72.558594 104.863281 C 73.820312 104.714844 75.214844 104.277344 76.265625 103.960938 C 77.167969 103.675781 78.140625 103.4375 78.90625 102.925781 C 79.703125 102.429688 80.558594 101.53125 80.84375 100.945312 Z M 87.898438 100.496094 C 87.960938 100.976562 87 102.042969 86.414062 102.402344 C 85.828125 102.746094 84.957031 102.746094 84.355469 102.566406 C 83.742188 102.386719 82.945312 101.816406 82.75 101.335938 C 82.554688 100.855469 82.902344 100.03125 83.199219 99.683594 C 83.5 99.339844 84.085938 99.25 84.566406 99.234375 C 85.046875 99.203125 85.601562 99.367188 86.097656 99.5625 C 86.636719 99.757812 87.855469 100.015625 87.898438 100.496094 Z M 315.847656 101.921875 C 314.765625 101.664062 313.429688 100.539062 313.207031 99.773438 C 312.980469 99.007812 313.714844 97.761719 314.527344 97.296875 C 315.351562 96.816406 317.214844 96.652344 318.160156 96.890625 C 319.042969 97.117188 319.960938 97.972656 320.214844 98.707031 C 320.472656 99.445312 320.425781 100.75 319.71875 101.261719 C 319 101.800781 316.941406 102.175781 315.847656 101.921875 Z M 51.105469 101.394531 C 51.089844 100.898438 50.160156 99.054688 49.621094 98.679688 C 49.09375 98.332031 48.269531 98.933594 47.804688 99.175781 C 47.382812 99.398438 46.828125 99.835938 46.8125 100.164062 C 46.785156 100.496094 47.25 100.988281 47.640625 101.199219 C 48.121094 101.457031 49.125 101.664062 49.710938 101.695312 C 50.175781 101.726562 51.105469 101.875 51.105469 101.394531 Z M 59.226562 98.632812 C 60.308594 98.378906 61.644531 97.253906 61.871094 96.488281 C 62.09375 95.722656 61.359375 94.476562 60.546875 94.011719 C 59.722656 93.53125 57.863281 93.363281 56.917969 93.605469 C 56.03125 93.828125 55.113281 94.683594 54.859375 95.421875 C 54.589844 96.15625 54.648438 97.460938 55.355469 97.972656 C 56.074219 98.511719 58.148438 98.886719 59.226562 98.632812 Z M 304.800781 96.308594 C 304.320312 95.960938 305.070312 94.761719 305.503906 94.207031 C 305.941406 93.648438 306.734375 93.230469 307.367188 92.972656 C 307.964844 92.734375 308.65625 92.703125 309.300781 92.6875 C 310.023438 92.660156 310.921875 92.523438 311.660156 92.808594 C 312.410156 93.109375 313.925781 93.964844 313.804688 94.460938 C 313.6875 94.957031 311.871094 95.4375 310.953125 95.734375 C 310.113281 96.019531 309.242188 96.1875 308.355469 96.277344 C 307.320312 96.367188 305.265625 96.652344 304.800781 96.308594 Z M 324.058594 95.449219 C 324.3125 95.179688 325.679688 94.550781 326.324219 94.371094 C 326.851562 94.234375 327.511719 94.25 327.929688 94.460938 C 328.351562 94.671875 328.96875 95.347656 328.832031 95.617188 C 328.710938 95.871094 327.75 95.976562 327.179688 96.019531 C 326.503906 96.097656 325.304688 96.113281 324.792969 96.019531 C 324.492188 95.960938 323.847656 95.675781 324.058594 95.449219 Z M 70.292969 93.019531 C 70.773438 92.675781 70.019531 91.472656 69.585938 90.917969 C 69.164062 90.363281 68.371094 89.941406 67.722656 89.6875 C 67.125 89.445312 66.433594 89.417969 65.789062 89.402344 C 65.066406 89.371094 64.167969 89.234375 63.429688 89.523438 C 62.679688 89.820312 61.164062 90.675781 61.285156 91.171875 C 61.40625 91.667969 63.222656 92.148438 64.136719 92.449219 C 64.976562 92.734375 65.847656 92.898438 66.734375 92.988281 C 67.753906 93.078125 69.8125 93.378906 70.292969 93.019531 Z M 51.015625 92.164062 C 50.761719 91.894531 49.394531 91.261719 48.75 91.097656 C 48.222656 90.949219 47.5625 90.960938 47.144531 91.171875 C 46.722656 91.382812 46.109375 92.074219 46.242188 92.328125 C 46.363281 92.582031 47.324219 92.6875 47.894531 92.734375 C 48.570312 92.792969 49.769531 92.824219 50.28125 92.734375 C 50.582031 92.6875 51.226562 92.390625 51.015625 92.164062 Z M 51.015625 92.164062 " fill-opacity="1" fill-rule="evenodd"/></g><g transform="matrix(1, 0, 0, 1, 86, 170)"><g clip-path="url(#53248c06e8)"><g fill="#e58e26" fill-opacity="1"><g transform="translate(0.945206, 27.151287)"><g><path d="M 5.015625 -0.421875 L 6.734375 -0.859375 L 6.734375 -19.328125 L 3.4375 -19.328125 C 3.4375 -18.160156 3.117188 -17.039062 2.484375 -15.96875 C 2.222656 -15.53125 1.921875 -15.171875 1.578125 -14.890625 L 0.71875 -14.890625 L 0.71875 -20.03125 L 17.46875 -20.03125 L 17.46875 -14.890625 L 16.609375 -14.890625 C 16.242188 -15.171875 15.925781 -15.53125 15.65625 -15.96875 C 15.039062 -17 14.734375 -18.117188 14.734375 -19.328125 L 11.453125 -19.328125 L 11.453125 -0.859375 L 13.171875 -0.421875 L 13.171875 0 L 5.015625 0 Z M 5.015625 -0.421875 "/></g></g></g><g fill="#e58e26" fill-opacity="1"><g transform="translate(19.121987, 27.151287)"><g><path d="M 1.140625 -0.421875 L 2.859375 -0.859375 L 2.859375 -13.453125 L 1.140625 -13.890625 L 1.140625 -14.3125 L 3.71875 -14.3125 C 4.84375 -14.3125 5.734375 -13.945312 6.390625 -13.21875 C 6.628906 -12.9375 6.835938 -12.585938 7.015625 -12.171875 C 7.296875 -12.585938 7.648438 -12.96875 8.078125 -13.3125 C 9.023438 -14.070312 10.09375 -14.453125 11.28125 -14.453125 C 12.289062 -14.453125 13.046875 -14.21875 13.546875 -13.75 C 14.054688 -13.28125 14.3125 -12.609375 14.3125 -11.734375 C 14.3125 -11.085938 14.113281 -10.566406 13.71875 -10.171875 C 13.332031 -9.785156 12.816406 -9.59375 12.171875 -9.59375 C 11.898438 -9.59375 11.628906 -9.609375 11.359375 -9.640625 L 11.015625 -9.734375 L 11.015625 -13.734375 C 10.046875 -13.734375 9.160156 -13.351562 8.359375 -12.59375 C 7.972656 -12.207031 7.664062 -11.828125 7.4375 -11.453125 L 7.4375 -0.859375 L 9.15625 -0.421875 L 9.15625 0 L 1.140625 0 Z M 1.140625 -0.421875 "/></g></g></g><g fill="#e58e26" fill-opacity="1"><g transform="translate(33.577539, 27.151287)"><g><path d="M 1.140625 -0.421875 L 2.859375 -0.859375 L 2.859375 -13.453125 L 1.140625 -13.890625 L 1.140625 -14.3125 L 4.859375 -14.3125 C 6.578125 -14.3125 7.4375 -13.453125 7.4375 -11.734375 L 7.4375 -0.859375 L 9.15625 -0.421875 L 9.15625 0 L 1.140625 0 Z M 4.859375 -16.03125 C 4.285156 -16.03125 3.804688 -16.21875 3.421875 -16.59375 C 3.046875 -16.976562 2.859375 -17.457031 2.859375 -18.03125 C 2.859375 -18.601562 3.046875 -19.078125 3.421875 -19.453125 C 3.804688 -19.835938 4.285156 -20.03125 4.859375 -20.03125 C 5.429688 -20.03125 5.90625 -19.835938 6.28125 -19.453125 C 6.664062 -19.078125 6.859375 -18.601562 6.859375 -18.03125 C 6.859375 -17.457031 6.664062 -16.976562 6.28125 -16.59375 C 5.90625 -16.21875 5.429688 -16.03125 4.859375 -16.03125 Z M 4.859375 -16.03125 "/></g></g></g><g fill="#e58e26" fill-opacity="1"><g transform="translate(43.30999, 27.151287)"><g><path d="M 9.296875 0.421875 C 7.847656 0.421875 6.515625 0.015625 5.296875 -0.796875 C 4.078125 -1.617188 3.101562 -2.816406 2.375 -4.390625 C 1.644531 -5.960938 1.28125 -7.835938 1.28125 -10.015625 C 1.28125 -12.210938 1.65625 -14.097656 2.40625 -15.671875 C 3.164062 -17.242188 4.226562 -18.4375 5.59375 -19.25 C 6.957031 -20.0625 8.535156 -20.46875 10.328125 -20.46875 C 11.421875 -20.46875 12.519531 -20.148438 13.625 -19.515625 C 14.039062 -19.285156 14.460938 -18.984375 14.890625 -18.609375 C 15.210938 -19.097656 15.546875 -19.488281 15.890625 -19.78125 C 16.234375 -20.03125 16.421875 -20.164062 16.453125 -20.1875 L 17.171875 -20.1875 L 17.171875 -14.734375 L 16.03125 -14.734375 C 15.78125 -15.648438 15.40625 -16.484375 14.90625 -17.234375 C 14.457031 -17.953125 13.890625 -18.550781 13.203125 -19.03125 C 12.523438 -19.507812 11.75 -19.75 10.875 -19.75 C 9.5625 -19.75 8.46875 -18.984375 7.59375 -17.453125 C 6.726562 -15.929688 6.296875 -13.453125 6.296875 -10.015625 C 6.296875 -6.578125 6.679688 -4.144531 7.453125 -2.71875 C 8.222656 -1.289062 9.222656 -0.578125 10.453125 -0.578125 C 11.148438 -0.578125 11.785156 -0.957031 12.359375 -1.71875 C 12.578125 -2 12.800781 -2.378906 13.03125 -2.859375 L 13.03125 -9.453125 L 11.3125 -9.875 L 11.3125 -10.3125 L 19.46875 -10.3125 L 19.46875 -9.875 L 17.75 -9.453125 L 17.75 0.140625 L 17.3125 0.140625 C 15.925781 0.140625 14.867188 -0.238281 14.140625 -1 C 13.816406 -1.34375 13.585938 -1.722656 13.453125 -2.140625 C 13.179688 -1.671875 12.867188 -1.242188 12.515625 -0.859375 C 11.648438 -0.00390625 10.578125 0.421875 9.296875 0.421875 Z M 9.296875 0.421875 "/></g></g></g><g fill="#e58e26" fill-opacity="1"><g transform="translate(63.347399, 27.151287)"><g><path d="M 6.734375 0.421875 C 5.023438 0.421875 3.710938 0.0625 2.796875 -0.65625 C 1.890625 -1.382812 1.4375 -2.3125 1.4375 -3.4375 C 1.4375 -4.175781 1.597656 -4.910156 1.921875 -5.640625 C 2.054688 -5.984375 2.226562 -6.296875 2.4375 -6.578125 C 3.21875 -6.773438 4.066406 -6.945312 4.984375 -7.09375 C 7.046875 -7.4375 8.867188 -7.648438 10.453125 -7.734375 L 10.453125 -8.59375 C 10.453125 -10.707031 10.191406 -12.164062 9.671875 -12.96875 C 9.160156 -13.769531 8.367188 -14.171875 7.296875 -14.171875 C 6.898438 -14.171875 6.554688 -14.125 6.265625 -14.03125 L 5.875 -13.890625 L 5.875 -9.59375 L 5.5 -9.5 C 5.1875 -9.46875 4.925781 -9.453125 4.71875 -9.453125 C 4.070312 -9.453125 3.550781 -9.644531 3.15625 -10.03125 C 2.769531 -10.425781 2.578125 -10.945312 2.578125 -11.59375 C 2.578125 -12.46875 3.019531 -13.207031 3.90625 -13.8125 C 4.789062 -14.425781 6.113281 -14.734375 7.875 -14.734375 C 9.363281 -14.734375 10.644531 -14.472656 11.71875 -13.953125 C 12.800781 -13.429688 13.625 -12.707031 14.1875 -11.78125 C 14.75 -10.851562 15.03125 -9.789062 15.03125 -8.59375 L 15.03125 -0.859375 L 16.75 -0.421875 L 16.75 0 L 14.171875 0 C 13.023438 0 12.132812 -0.351562 11.5 -1.0625 C 11.238281 -1.34375 11.03125 -1.703125 10.875 -2.140625 C 10.613281 -1.671875 10.300781 -1.242188 9.9375 -0.859375 C 9.070312 -0.00390625 8.003906 0.421875 6.734375 0.421875 Z M 7.875 -0.578125 C 8.582031 -0.578125 9.222656 -0.957031 9.796875 -1.71875 C 10.003906 -2 10.222656 -2.378906 10.453125 -2.859375 L 10.453125 -7.015625 C 9.566406 -7.015625 8.722656 -6.96875 7.921875 -6.875 C 7.335938 -6.789062 6.941406 -6.742188 6.734375 -6.734375 C 6.628906 -6.515625 6.53125 -6.226562 6.4375 -5.875 C 6.25 -5.144531 6.15625 -4.425781 6.15625 -3.71875 C 6.15625 -2.65625 6.316406 -1.863281 6.640625 -1.34375 C 6.960938 -0.832031 7.375 -0.578125 7.875 -0.578125 Z M 7.875 -0.578125 "/></g></g></g><g fill="#e58e26" fill-opacity="1"><g transform="translate(80.665437, 27.151287)"><g><path d="M 1.140625 -0.421875 L 2.859375 -0.859375 L 2.859375 -13.453125 L 1.140625 -13.890625 L 1.140625 -14.3125 L 3.71875 -14.3125 C 4.84375 -14.3125 5.734375 -13.945312 6.390625 -13.21875 C 6.628906 -12.9375 6.835938 -12.585938 7.015625 -12.171875 C 7.296875 -12.585938 7.648438 -12.96875 8.078125 -13.3125 C 9.023438 -14.070312 10.09375 -14.453125 11.28125 -14.453125 C 12.289062 -14.453125 13.046875 -14.21875 13.546875 -13.75 C 14.054688 -13.28125 14.3125 -12.609375 14.3125 -11.734375 C 14.3125 -11.085938 14.113281 -10.566406 13.71875 -10.171875 C 13.332031 -9.785156 12.816406 -9.59375 12.171875 -9.59375 C 11.898438 -9.59375 11.628906 -9.609375 11.359375 -9.640625 L 11.015625 -9.734375 L 11.015625 -13.734375 C 10.046875 -13.734375 9.160156 -13.351562 8.359375 -12.59375 C 7.972656 -12.207031 7.664062 -11.828125 7.4375 -11.453125 L 7.4375 -0.859375 L 9.15625 -0.421875 L 9.15625 0 L 1.140625 0 Z M 1.140625 -0.421875 "/></g></g></g><g fill="#e58e26" fill-opacity="1"><g transform="translate(95.120989, 27.151287)"><g><path d="M 7.015625 0.421875 C 5.890625 0.421875 4.882812 0.132812 4 -0.4375 C 3.125 -1.019531 2.425781 -1.878906 1.90625 -3.015625 C 1.394531 -4.148438 1.140625 -5.53125 1.140625 -7.15625 C 1.140625 -9.59375 1.707031 -11.460938 2.84375 -12.765625 C 3.976562 -14.078125 5.507812 -14.734375 7.4375 -14.734375 C 8.351562 -14.734375 9.15625 -14.546875 9.84375 -14.171875 C 10.132812 -14.035156 10.429688 -13.84375 10.734375 -13.59375 L 10.734375 -19.171875 L 9.015625 -19.609375 L 9.015625 -20.03125 L 12.734375 -20.03125 C 14.453125 -20.03125 15.3125 -19.175781 15.3125 -17.46875 L 15.3125 -0.859375 L 17.03125 -0.421875 L 17.03125 0 L 14.453125 0 C 13.304688 0 12.421875 -0.351562 11.796875 -1.0625 C 11.523438 -1.34375 11.3125 -1.703125 11.15625 -2.140625 C 10.914062 -1.671875 10.601562 -1.242188 10.21875 -0.859375 C 9.363281 -0.00390625 8.296875 0.421875 7.015625 0.421875 Z M 8.15625 -0.578125 C 8.863281 -0.578125 9.503906 -0.957031 10.078125 -1.71875 C 10.285156 -2 10.503906 -2.378906 10.734375 -2.859375 L 10.734375 -12.734375 C 10.523438 -12.941406 10.304688 -13.132812 10.078125 -13.3125 C 9.554688 -13.695312 9.0625 -13.890625 8.59375 -13.890625 C 7.769531 -13.890625 7.132812 -13.410156 6.6875 -12.453125 C 6.238281 -11.492188 6.015625 -9.726562 6.015625 -7.15625 C 6.015625 -4.695312 6.21875 -2.984375 6.625 -2.015625 C 7.03125 -1.054688 7.539062 -0.578125 8.15625 -0.578125 Z M 8.15625 -0.578125 "/></g></g></g><g fill="#e58e26" fill-opacity="1"><g transform="translate(112.868406, 27.151287)"><g><path d="M 8.875 0.421875 C 6.425781 0.421875 4.523438 -0.25 3.171875 -1.59375 C 1.816406 -2.9375 1.140625 -4.789062 1.140625 -7.15625 C 1.140625 -8.695312 1.4375 -10.039062 2.03125 -11.1875 C 2.625 -12.332031 3.445312 -13.207031 4.5 -13.8125 C 5.5625 -14.425781 6.78125 -14.734375 8.15625 -14.734375 C 9.53125 -14.734375 10.738281 -14.476562 11.78125 -13.96875 C 12.820312 -13.457031 13.625 -12.765625 14.1875 -11.890625 C 14.75 -11.023438 15.03125 -10.066406 15.03125 -9.015625 C 15.03125 -8.535156 14.984375 -8.125 14.890625 -7.78125 L 14.734375 -7.296875 C 13.921875 -7.128906 13.035156 -6.988281 12.078125 -6.875 C 10.078125 -6.582031 8.054688 -6.4375 6.015625 -6.4375 C 6.015625 -4.226562 6.316406 -2.648438 6.921875 -1.703125 C 7.535156 -0.753906 8.378906 -0.28125 9.453125 -0.28125 C 10.191406 -0.28125 10.878906 -0.457031 11.515625 -0.8125 C 12.160156 -1.164062 12.664062 -1.632812 13.03125 -2.21875 C 13.40625 -2.800781 13.59375 -3.394531 13.59375 -4 L 14.3125 -4 C 14.3125 -3.238281 14.082031 -2.515625 13.625 -1.828125 C 13.164062 -1.140625 12.523438 -0.59375 11.703125 -0.1875 C 10.890625 0.21875 9.945312 0.421875 8.875 0.421875 Z M 6.015625 -7.15625 C 7.234375 -7.15625 8.222656 -7.203125 8.984375 -7.296875 C 9.304688 -7.316406 9.648438 -7.363281 10.015625 -7.4375 C 10.035156 -7.53125 10.082031 -7.742188 10.15625 -8.078125 C 10.257812 -8.546875 10.3125 -9.050781 10.3125 -9.59375 C 10.3125 -11.175781 10.097656 -12.332031 9.671875 -13.0625 C 9.253906 -13.800781 8.75 -14.171875 8.15625 -14.171875 C 6.726562 -14.171875 6.015625 -11.832031 6.015625 -7.15625 Z M 6.015625 -7.15625 "/></g></g></g><g fill="#e58e26" fill-opacity="1"><g transform="translate(128.898325, 27.151287)"><g><path d="M 1.140625 -0.421875 L 2.859375 -0.859375 L 2.859375 -13.453125 L 1.140625 -13.890625 L 1.140625 -14.3125 L 3.71875 -14.3125 C 4.84375 -14.3125 5.734375 -13.945312 6.390625 -13.21875 C 6.628906 -12.9375 6.835938 -12.585938 7.015625 -12.171875 C 7.273438 -12.660156 7.585938 -13.085938 7.953125 -13.453125 C 8.816406 -14.304688 9.882812 -14.734375 11.15625 -14.734375 C 12.226562 -14.734375 13.1875 -14.507812 14.03125 -14.0625 C 14.882812 -13.613281 15.550781 -13.023438 16.03125 -12.296875 C 16.507812 -11.578125 16.75 -10.816406 16.75 -10.015625 L 16.75 -0.859375 L 18.46875 -0.421875 L 18.46875 0 L 14.734375 0 C 13.023438 0 12.171875 -0.859375 12.171875 -2.578125 L 12.171875 -10.015625 C 12.171875 -11.222656 11.953125 -12.144531 11.515625 -12.78125 C 11.085938 -13.414062 10.585938 -13.734375 10.015625 -13.734375 C 9.296875 -13.734375 8.648438 -13.351562 8.078125 -12.59375 C 7.828125 -12.269531 7.613281 -11.890625 7.4375 -11.453125 L 7.4375 -0.859375 L 9.15625 -0.421875 L 9.15625 0 L 1.140625 0 Z M 1.140625 -0.421875 "/></g></g></g><g fill="#e58e26" fill-opacity="1"><g transform="translate(147.933861, 27.151287)"><g><path d="M 1.140625 -0.421875 L 2.859375 -0.859375 L 2.859375 -13.453125 L 1.140625 -13.890625 L 1.140625 -14.3125 L 4.859375 -14.3125 C 6.578125 -14.3125 7.4375 -13.453125 7.4375 -11.734375 L 7.4375 -0.859375 L 9.15625 -0.421875 L 9.15625 0 L 1.140625 0 Z M 4.859375 -16.03125 C 4.285156 -16.03125 3.804688 -16.21875 3.421875 -16.59375 C 3.046875 -16.976562 2.859375 -17.457031 2.859375 -18.03125 C 2.859375 -18.601562 3.046875 -19.078125 3.421875 -19.453125 C 3.804688 -19.835938 4.285156 -20.03125 4.859375 -20.03125 C 5.429688 -20.03125 5.90625 -19.835938 6.28125 -19.453125 C 6.664062 -19.078125 6.859375 -18.601562 6.859375 -18.03125 C 6.859375 -17.457031 6.664062 -16.976562 6.28125 -16.59375 C 5.90625 -16.21875 5.429688 -16.03125 4.859375 -16.03125 Z M 4.859375 -16.03125 "/></g></g></g><g fill="#e58e26" fill-opacity="1"><g transform="translate(157.666311, 27.151287)"><g><path d="M 1.140625 -0.421875 L 2.859375 -0.859375 L 2.859375 -13.453125 L 1.140625 -13.890625 L 1.140625 -14.3125 L 3.71875 -14.3125 C 4.84375 -14.3125 5.734375 -13.945312 6.390625 -13.21875 C 6.628906 -12.9375 6.835938 -12.585938 7.015625 -12.171875 C 7.273438 -12.660156 7.585938 -13.085938 7.953125 -13.453125 C 8.816406 -14.304688 9.882812 -14.734375 11.15625 -14.734375 C 12.226562 -14.734375 13.1875 -14.507812 14.03125 -14.0625 C 14.882812 -13.613281 15.550781 -13.023438 16.03125 -12.296875 C 16.507812 -11.578125 16.75 -10.816406 16.75 -10.015625 L 16.75 -0.859375 L 18.46875 -0.421875 L 18.46875 0 L 14.734375 0 C 13.023438 0 12.171875 -0.859375 12.171875 -2.578125 L 12.171875 -10.015625 C 12.171875 -11.222656 11.953125 -12.144531 11.515625 -12.78125 C 11.085938 -13.414062 10.585938 -13.734375 10.015625 -13.734375 C 9.296875 -13.734375 8.648438 -13.351562 8.078125 -12.59375 C 7.828125 -12.269531 7.613281 -11.890625 7.4375 -11.453125 L 7.4375 -0.859375 L 9.15625 -0.421875 L 9.15625 0 L 1.140625 0 Z M 1.140625 -0.421875 "/></g></g></g><g fill="#e58e26" fill-opacity="1"><g transform="translate(176.701847, 27.151287)"><g><path d="M 7.875 6.15625 C 6.175781 6.15625 4.789062 6 3.71875 5.6875 C 2.65625 5.382812 1.890625 4.992188 1.421875 4.515625 C 0.953125 4.046875 0.71875 3.539062 0.71875 3 C 0.71875 2.351562 0.910156 1.832031 1.296875 1.4375 C 1.691406 1.050781 2.210938 0.859375 2.859375 0.859375 C 3.015625 0.859375 3.289062 0.882812 3.6875 0.9375 L 4 1 L 4 5.015625 C 4.226562 5.085938 4.59375 5.179688 5.09375 5.296875 C 5.96875 5.484375 6.796875 5.578125 7.578125 5.578125 C 9.910156 5.578125 11.613281 5.25 12.6875 4.59375 C 13.769531 3.9375 14.3125 3.117188 14.3125 2.140625 C 14.3125 0.898438 13.164062 0.28125 10.875 0.28125 L 5.4375 0.28125 C 4.007812 0.28125 2.910156 -0.0078125 2.140625 -0.59375 C 1.378906 -1.1875 1 -1.941406 1 -2.859375 C 1 -3.773438 1.445312 -4.585938 2.34375 -5.296875 C 2.707031 -5.566406 3.164062 -5.804688 3.71875 -6.015625 C 3.007812 -6.453125 2.5 -6.96875 2.1875 -7.5625 C 1.875 -8.164062 1.71875 -8.890625 1.71875 -9.734375 C 1.71875 -11.140625 2.25 -12.273438 3.3125 -13.140625 C 4.382812 -14.015625 5.953125 -14.453125 8.015625 -14.453125 C 8.910156 -14.453125 9.734375 -14.359375 10.484375 -14.171875 C 11.242188 -13.992188 11.851562 -13.753906 12.3125 -13.453125 C 12.457031 -13.773438 12.65625 -14.0625 12.90625 -14.3125 C 13.476562 -14.882812 14.1875 -15.171875 15.03125 -15.171875 C 15.675781 -15.171875 16.21875 -14.945312 16.65625 -14.5 C 17.09375 -14.050781 17.3125 -13.460938 17.3125 -12.734375 C 17.3125 -12.179688 17.164062 -11.734375 16.875 -11.390625 C 16.582031 -11.046875 16.207031 -10.875 15.75 -10.875 C 15.53125 -10.875 15.289062 -10.894531 15.03125 -10.9375 L 14.734375 -11.015625 L 14.734375 -14.453125 C 14.242188 -14.453125 13.78125 -14.210938 13.34375 -13.734375 C 13.164062 -13.566406 13.007812 -13.332031 12.875 -13.03125 C 13.832031 -12.1875 14.3125 -11.085938 14.3125 -9.734375 C 14.3125 -8.316406 13.773438 -7.175781 12.703125 -6.3125 C 11.640625 -5.445312 10.078125 -5.015625 8.015625 -5.015625 C 6.640625 -5.015625 5.398438 -5.25 4.296875 -5.71875 L 3.71875 -5.4375 C 3.53125 -5.320312 3.390625 -5.210938 3.296875 -5.109375 C 3.203125 -5.003906 3.15625 -4.875 3.15625 -4.71875 C 3.15625 -4.394531 3.320312 -4.144531 3.65625 -3.96875 C 3.988281 -3.800781 4.582031 -3.71875 5.4375 -3.71875 L 10.875 -3.71875 C 12.3125 -3.71875 13.429688 -3.300781 14.234375 -2.46875 C 15.046875 -1.644531 15.453125 -0.488281 15.453125 1 C 15.453125 2.53125 14.816406 3.769531 13.546875 4.71875 C 12.285156 5.675781 10.394531 6.15625 7.875 6.15625 Z M 8.015625 -5.578125 C 8.640625 -5.578125 9.128906 -5.878906 9.484375 -6.484375 C 9.835938 -7.097656 10.015625 -8.179688 10.015625 -9.734375 C 10.015625 -11.273438 9.835938 -12.351562 9.484375 -12.96875 C 9.128906 -13.582031 8.640625 -13.890625 8.015625 -13.890625 C 7.390625 -13.890625 6.898438 -13.582031 6.546875 -12.96875 C 6.191406 -12.351562 6.015625 -11.273438 6.015625 -9.734375 C 6.015625 -8.179688 6.191406 -7.097656 6.546875 -6.484375 C 6.898438 -5.878906 7.390625 -5.578125 8.015625 -5.578125 Z M 8.015625 -5.578125 "/></g></g></g><g fill="#e58e26" fill-opacity="1"><g transform="translate(194.026165, 27.151287)"><g/></g></g></g></g></svg>